<?xml version="1.0" standalone="no"?>
<!DOCTYPE svg PUBLIC "-//W3C//DTD SVG 1.1//EN" "http://www.w3.org/Graphics/SVG/1.1/DTD/svg11.dtd" >
<svg xmlns="http://www.w3.org/2000/svg">
<metadata></metadata>
<defs>
<font id="civitalight" horiz-adv-x="546" >
<font-face units-per-em="1000" ascent="740" descent="-260" />
<missing-glyph horiz-adv-x="223" />
<glyph unicode="&#xfb01;" horiz-adv-x="593" d="M279 -2q-63 4 -128 4q-48 0 -113 -4v18q59 7 71 21q9 9 9 94v289h-81v20q54 8 69 21q11 10 13 38q7 105 45 153q30 38 78 54t92 16q74 0 110 -15q20 -9 20 -38q0 -21 -17 -92h-20q-13 70 -35 93q-23 25 -67 25q-53 0 -85 -27q-59 -51 -59 -174v-42h171q30 0 60 6t34 6 q23 0 31 -10q10 -10 10 -49q0 -10 -1.5 -70t-1.5 -80v-134q0 -71 9 -85q9 -15 76 -20v-18q-61 4 -120 4q-42 0 -107 -4v18q55 4 68 21q11 15 11 83v148q0 114 -16 137q-9 15 -62 15h-162v-285q0 -79 9 -94q11 -19 89 -25v-18z" />
<glyph unicode="&#xfb02;" horiz-adv-x="594" d="M279 -2q-63 4 -128 4q-48 0 -113 -4v18q59 7 71 21q9 9 9 94v289h-81v20q54 8 69 21q11 10 13 38q4 95 37 146q26 39 71 58t90 19q62 0 96 -17q27 20 42 20q13 0 20 -8q10 -10 10 -79q0 -32 -0.5 -204t-0.5 -313q0 -69 9 -84q10 -17 79 -21v-18q-63 4 -123 4 q-42 0 -107 -4v18q58 6 69 20q10 12 10 84v216q0 152 -4 230q-4 60 -18 85q-22 44 -84 44q-54 0 -84 -28q-50 -46 -50 -173v-42h119v-32h-119v-285q0 -79 9 -94q11 -18 89 -25v-18z" />
<glyph unicode="&#xfb03;" horiz-adv-x="902" d="M281 -2q-63 4 -130 4q-48 0 -113 -4v18q59 7 71 21q9 9 9 94v290h-81v20q53 8 69 20q10 8 13 38q0 3 1.5 19.5t2 21l2 18t3 20t4.5 17t6.5 19t8.5 16.5q41 73 145 73q54 0 83 -14q19 -9 19 -41q0 -29 -9 -76h-18q-10 59 -28 82t-57 23q-42 0 -64 -25q-37 -40 -37 -158 v-41h155q68 0 79 11q12 13 13 35q7 108 45 155q55 68 170 68q75 0 111 -15q20 -8 20 -38q0 -17 -18 -92h-20q-17 72 -32 91q-20 27 -68 27q-22 0 -47.5 -8.5t-39.5 -19.5q-59 -51 -59 -173v-41h171q30 0 60 5.5t34 5.5q23 0 31 -10q10 -10 10 -49q0 -10 -1.5 -70t-1.5 -80 v-134q0 -71 9 -85q9 -15 76 -20v-18q-61 4 -120 4q-42 0 -107 -4v18q59 5 69 20q10 16 10 84v148q0 112 -16 137q-10 16 -62 16h-162v-286q0 -79 9 -94q11 -19 91 -25v-18q-63 4 -129 4q-47 0 -112 -4v18q57 7 69 21q9 9 9 94v290h-246v-286q0 -79 9 -94q11 -19 91 -25v-18z " />
<glyph unicode="&#xfb04;" horiz-adv-x="903" d="M282 -2q-63 4 -131 4q-48 0 -113 -4v18q59 7 71 21q9 9 9 94v290h-81v20q53 8 69 20q10 8 13 38q0 4 1 17.5t1.5 18t2 16.5t2.5 17.5t3 15t4.5 16t6 15t7.5 15.5q41 73 145 73q54 0 83 -14q19 -9 19 -41q0 -29 -9 -76h-18q-10 59 -28 82t-57 23q-40 0 -64 -25 q-37 -38 -37 -157v-42h155q68 0 79 11q12 13 13 36q5 96 37 145q26 40 70.5 58.5t90.5 18.5q57 0 97 -17q22 20 40 20q14 0 21 -8q10 -9 10 -79q0 -32 -0.5 -204t-0.5 -313q0 -69 9 -84q10 -17 79 -21v-18q-63 4 -123 4q-42 0 -107 -4v18q58 6 69 20q10 12 10 84v216 q0 156 -4 234q-4 56 -17 80q-25 45 -83 45q-52 0 -86 -29q-50 -43 -50 -167v-46h119v-32h-119v-286q0 -79 9 -94q11 -19 91 -25v-18q-63 4 -129 4q-48 0 -113 -4v18q58 7 70 21q9 9 9 94v290h-246v-286q0 -79 9 -94q11 -18 92 -25v-18z" />
<glyph horiz-adv-x="1000" />
<glyph horiz-adv-x="1000" />
<glyph unicode="&#xd;" horiz-adv-x="1000" />
<glyph unicode=" "  horiz-adv-x="223" />
<glyph unicode="&#x09;" horiz-adv-x="223" />
<glyph unicode="&#xa0;" horiz-adv-x="223" />
<glyph unicode="!" horiz-adv-x="316" d="M190 200h-29q-4 75 -17 239t-13 190q0 61 47 61q46 0 46 -60q0 -23 -6 -95t-15 -174.5t-13 -160.5zM231 44q0 -23 -15 -39t-39 -16q-23 0 -38.5 16t-15.5 39t15.5 39t37.5 16q24 0 39.5 -16t15.5 -39z" />
<glyph unicode="&#x22;" horiz-adv-x="313" d="M92 438h-17q-3 30 -10 82.5t-11.5 89.5t-4.5 45q0 42 37 42t37 -42q0 -8 -5.5 -44.5t-13.5 -90t-12 -82.5zM233 438h-18q-3 31 -9.5 83t-11 89.5t-4.5 44.5q0 42 36 42q38 0 38 -42q0 -8 -5.5 -45t-13.5 -89t-12 -83z" />
<glyph unicode="#" horiz-adv-x="528" d="M121 -12h-32l46 237h-104v59h115l22 111h-107v61h119l42 218h32l-42 -218h158l42 218h32l-42 -218h96v-61h-108l-22 -111h100v-59h-111l-46 -237h-32l46 237h-158zM200 395l-22 -111h158l22 111h-158z" />
<glyph unicode="$" horiz-adv-x="511" d="M278 -97h-35v93q-118 1 -161 43q-27 23 -27 90q0 33 4 57h20q23 -81 52 -114q40 -44 112 -46v272l-1 1q-94 39 -129 86.5t-35 104.5q0 68 43.5 111.5t121.5 50.5v98h35v-96q91 0 140 -27q22 -13 22 -61q0 -35 -9 -94h-23q-4 78 -31 112q-31 38 -99 40v-259l14 -6 q94 -38 127.5 -82.5t33.5 -98.5q0 -76 -46.5 -124.5t-128.5 -55.5v-95zM392 146q0 47 -21.5 76t-92.5 61v-255q53 7 83.5 40.5t30.5 77.5zM140 510q0 -43 21.5 -71.5t81.5 -57.5v240q-47 -7 -75 -35t-28 -76z" />
<glyph unicode="%" horiz-adv-x="810" d="M39 445q0 104 41.5 159t107.5 55q63 0 103.5 -52t40.5 -148q0 -97 -43 -151t-108 -54q-61 0 -101.5 48.5t-40.5 142.5zM97 450q0 -175 86 -175q91 0 91 180q0 184 -87 184q-41 0 -65.5 -39.5t-24.5 -149.5zM596 658l-347 -677h-38l347 677h38zM479 181q0 104 41.5 159 t106.5 55q63 0 103.5 -52t40.5 -148q0 -97 -43 -151t-108 -54q-61 0 -101 48.5t-40 142.5zM537 186q0 -176 86 -176q90 0 90 181q0 183 -86 183q-41 0 -65.5 -39t-24.5 -149z" />
<glyph unicode="&#x26;" horiz-adv-x="703" d="M698 52q-47 -64 -103 -64q-35 0 -63.5 13.5t-73.5 54.5q-73 -70 -189 -70q-113 0 -170.5 56.5t-57.5 133.5q0 69 38.5 112.5t116.5 79.5q-64 87 -64 163q0 72 47 111t124 39q67 0 108.5 -32t41.5 -92q0 -55 -40 -98t-132 -88q42 -59 103.5 -132t102.5 -109q52 72 52 141 q0 32 -17 43q-26 15 -75 18v19q86 -4 134 -4q22 0 102 4v-19q-26 -2 -55 -13q-27 -10 -37 -36q-3 -6 -25 -70q-19 -54 -56 -104q48 -45 71.5 -59t50.5 -14q24 0 53 27zM437 78q-52 47 -117.5 126t-106.5 139q-96 -50 -96 -152q0 -70 48.5 -118.5t123.5 -48.5q89 0 148 54z M263 394q135 70 135 160q0 98 -96 98q-47 0 -75.5 -28t-28.5 -76q0 -70 65 -154z" />
<glyph unicode="'" horiz-adv-x="173" d="M92 438h-17q-3 30 -10 82.5t-11.5 89.5t-4.5 45q0 42 37 42t37 -42q0 -8 -5.5 -44.5t-13.5 -90t-12 -82.5z" />
<glyph unicode="(" horiz-adv-x="293" d="M273 -152l-14 -16q-99 79 -156 199.5t-57 255.5q0 131 54.5 252.5t158.5 205.5l14 -15q-82 -101 -119 -203t-37 -240q0 -120 40.5 -234.5t115.5 -204.5z" />
<glyph unicode=")" horiz-adv-x="293" d="M20 729l14 16q99 -80 156 -200.5t57 -254.5q0 -131 -55 -252.5t-158 -205.5l-14 15q82 101 118.5 203t36.5 240q0 121 -40 235t-115 204z" />
<glyph unicode="*" horiz-adv-x="385" d="M195 393q-29 0 -29 27q0 30 24 116q-59 -59 -88 -79q-7 -6 -18 -6t-19 10t-8 22q0 13 13 20q38 21 115 42q-72 19 -115 40q-13 7 -13 21q0 10 8.5 21.5t18.5 11.5q9 0 20 -8q45 -36 86 -78q-24 99 -24 120q0 25 30 25q27 0 27 -25q0 -39 -24 -120q53 55 89 80q9 6 17 6 q11 0 19 -10.5t8 -22.5q0 -13 -13 -21q-30 -17 -114 -40q82 -23 113 -41q14 -9 14 -21q0 -11 -7.5 -21.5t-18.5 -10.5q-12 0 -19 6q-38 29 -88 79q24 -83 24 -116q0 -27 -28 -27z" />
<glyph unicode="+" horiz-adv-x="578" d="M316 53h-52v213h-210v50h210v214h52v-214h208v-50h-208v-213z" />
<glyph unicode="," horiz-adv-x="207" d="M18 -145q101 42 101 111q0 27 -32 37q-39 14 -39 48q0 20 14 33t38 13q34 0 52 -24t18 -59q0 -55 -32.5 -105t-111.5 -75z" />
<glyph unicode="-" horiz-adv-x="247" d="M226 228h-204v59h204v-59z" />
<glyph unicode="." horiz-adv-x="204" d="M156 44q0 -23 -15 -39t-40 -16q-23 0 -38.5 16t-15.5 39t15.5 39.5t37.5 16.5q25 0 40.5 -16t15.5 -40z" />
<glyph unicode="/" horiz-adv-x="385" d="M49 -122l-38 10l296 838l37 -9z" />
<glyph unicode="0" d="M46 305q0 174 64 265.5t167 91.5q99 0 161 -86t62 -247q0 -162 -66 -252.5t-168 -90.5q-96 0 -158 81t-62 238zM128 313q0 -298 142 -298q147 0 147 306q0 312 -141 312q-32 0 -56 -12.5t-46 -45.5t-34 -99t-12 -163z" />
<glyph unicode="1" d="M411 -2q-100 4 -141 4q-24 0 -136 -4v19q83 9 94 23q12 15 12 86v470q-74 -12 -103 -15l-3 24q75 14 180 57q-4 -96 -4 -195v-341q0 -72 8 -85q10 -16 93 -24v-19z" />
<glyph unicode="2" d="M475 68v-69q-95 3 -223 3q-124 0 -217 -3v30q189 148 261 257t72 201q0 147 -125 147q-72 0 -108 -45q-32 -42 -38 -122h-22q-10 68 -10 103q0 41 32 59q58 34 156 34q102 0 149.5 -47t47.5 -129q0 -110 -86 -212.5t-238 -208.5q9 0 349 2z" />
<glyph unicode="3" d="M66 178h24q6 -80 36 -118q35 -44 108 -44q83 0 119 43t36 125q0 141 -152 141q-21 0 -43 -2v35q20 -2 43 -2q128 0 128 148q0 128 -120 128q-68 0 -105 -43q-27 -33 -33 -110h-22q-11 62 -11 89q0 40 34 59q60 35 148 35q189 0 189 -154q0 -127 -125 -162 q72 -9 111 -50.5t39 -108.5q0 -95 -65.5 -147.5t-168.5 -52.5q-95 0 -148 33q-32 20 -32 59q0 44 10 99z" />
<glyph unicode="4" d="M501 -2q-72 4 -138 4q-57 0 -130 -4v19q76 11 88 24q11 12 11 78v59h-293v27q254 363 314 450h50q-2 -102 -2 -156v-262h107v-59h-107v-59q0 -64 10 -78q10 -16 90 -24v-19zM101 238h231q0 230 3 335q-22 -32 -110.5 -158.5t-123.5 -176.5z" />
<glyph unicode="5" d="M68 178h23q6 -78 36 -117q37 -46 113 -46q56 0 91.5 29t49 71.5t13.5 97.5q0 70 -35.5 111.5t-106.5 41.5q-80 0 -132 -52l-19 10l35 324h317v-67h-289l-24 -209q63 42 138 42q198 0 198 -195q0 -96 -59.5 -164.5t-179.5 -68.5q-97 0 -150 35q-31 21 -31 60q0 40 12 97z " />
<glyph unicode="6" d="M475 488h-22q-7 85 -39 116q-31 29 -81 29q-175 0 -196 -338l4 -1q17 53 63 83t106 30q84 0 135 -52.5t51 -139.5q0 -111 -61.5 -170.5t-155.5 -59.5q-100 0 -157 72.5t-57 219.5q0 186 72.5 285t200.5 99q77 0 116 -20q33 -17 33 -53q0 -40 -12 -100zM145 211 q0 -79 34.5 -137t104.5 -58q61 0 98.5 50t37.5 133q0 80 -33 124.5t-98 44.5q-57 0 -100.5 -45.5t-43.5 -111.5z" />
<glyph unicode="7" d="M207 -29l-51 11q50 147 122.5 309.5t143.5 291.5q-174 -2 -371 -2v67h428l6 -14q-144 -277 -278 -663z" />
<glyph unicode="8" d="M328 349q149 -60 149 -179q0 -83 -57.5 -133.5t-151.5 -50.5q-100 0 -151.5 48.5t-51.5 123.5q0 113 136 175q-107 59 -107 163q0 76 51 121t133 45q85 0 129 -41.5t44 -111.5q0 -49 -36 -93t-87 -67zM229 320q-102 -69 -102 -157q0 -67 40 -107t104 -40q62 0 101 39 t39 100q0 54 -42 90.5t-140 74.5zM302 362q89 68 89 149q0 56 -31 89t-86 33q-53 0 -83.5 -34.5t-30.5 -85.5q0 -46 32 -82.5t110 -68.5z" />
<glyph unicode="9" d="M70 159h23q6 -77 37 -113q29 -32 84 -32q172 0 196 338l-5 1q-18 -53 -63 -83t-104 -30q-84 0 -135.5 52.5t-51.5 139.5q0 110 61.5 169.5t154.5 59.5q214 0 214 -292q0 -186 -72 -285t-199 -99q-78 0 -118 20q-34 17 -34 53q0 41 12 101zM401 435q0 81 -32.5 138 t-103.5 57q-62 0 -100.5 -50t-38.5 -133q0 -80 33 -124.5t98 -44.5q58 0 101 44.5t43 112.5z" />
<glyph unicode=":" horiz-adv-x="224" d="M175 44q0 -23 -15 -39t-39 -16q-23 0 -38 16t-15 39t15 39t37 16q24 0 39.5 -16t15.5 -39zM175 390q0 -23 -15 -39t-39 -16q-23 0 -38 16t-15 39t15 39t37 16q24 0 39.5 -16t15.5 -39z" />
<glyph unicode=";" horiz-adv-x="224" d="M38 -145q101 42 101 111q0 27 -32 37q-39 14 -39 48q0 20 14 33t38 13q34 0 52 -24t18 -59q0 -55 -32.5 -105t-111.5 -75zM175 390q0 -23 -15 -39t-39 -16q-23 0 -38 16t-15 39t15 39t37 16q24 0 39.5 -16t15.5 -39z" />
<glyph unicode="&#x3c;" horiz-adv-x="600" d="M481 69l-386 190v55l386 194v-58l-331 -162l331 -158v-61z" />
<glyph unicode="=" horiz-adv-x="600" d="M523 181h-446v51h446v-51zM523 354h-446v50h446v-50z" />
<glyph unicode="&#x3e;" horiz-adv-x="600" d="M120 508l385 -190v-54l-385 -195v60l330 161l-330 157v61z" />
<glyph unicode="?" horiz-adv-x="446" d="M213 197l-25 -7q-21 42 -21 84q0 37 21.5 63.5t79.5 66.5q77 53 77 134q0 51 -28 82t-77 31q-70 0 -103 -40q-18 -21 -24 -46t-8 -65l-23 -1q-12 63 -12 101q0 35 26 50q53 31 147 31q84 0 130 -36t46 -102q0 -56 -24.5 -93.5t-93.5 -85.5q-5 -4 -21 -14.5t-23 -15.5 t-19.5 -16t-18 -19.5t-10.5 -20.5t-5 -25q0 -37 9 -56zM254 44q0 -23 -15 -39t-39 -16q-23 0 -38.5 16t-15.5 39t15.5 39t37.5 16q24 0 39.5 -16t15.5 -39z" />
<glyph unicode="@" horiz-adv-x="791" d="M733 -27q-140 -146 -332 -146q-165 0 -259 93t-94 255q0 114 52 214t147.5 161.5t211.5 61.5q68 0 122 -18t86 -45t53 -63t29 -68.5t8 -64.5q0 -99 -38.5 -182.5t-117.5 -131.5q-32 -21 -68 -21q-21 0 -34 11.5t-13 35.5q0 30 18 84l-4 2q-30 -60 -79.5 -98t-101.5 -38 q-98 0 -98 112q0 57 28.5 126.5t75.5 115.5q67 67 153 67q46 0 74 -28q9 -9 15 -9q7 0 14 11q10 16 17 30l22 -1q-49 -170 -73 -277q-11 -44 -11 -76q0 -33 25 -33q23 0 59 36q40 40 64 114t24 143q0 104 -65 170.5t-187 66.5q-150 0 -253 -118.5t-103 -292.5 q0 -142 82.5 -224t225.5 -82q183 0 308 125zM522 265q15 60 15 81q0 31 -13.5 46t-49.5 15q-63 0 -117 -64q-33 -40 -54.5 -100t-21.5 -115q0 -74 58 -74q55 0 108 61t75 150z" />
<glyph unicode="A" horiz-adv-x="671" d="M234 -2q-74 4 -118 4q-37 0 -111 -4v19q33 5 48 10t26 18q9 10 60 142l108 284q14 37 75 210h32q24 -77 68 -194l120 -321q34 -92 51 -118q12 -17 26 -22.5t47 -8.5v-19q-68 4 -122 4q-46 0 -134 -4v19q57 4 73 12q13 6 13 23q0 27 -27 99l-35 94h-230l-25 -67 q-36 -95 -36 -120q0 -18 11 -25q18 -13 80 -16v-19zM214 275h209l-107 294z" />
<glyph unicode="B" horiz-adv-x="615" d="M30 -2v19q82 11 90 25q10 15 10 80v433q0 63 -11 79q-14 22 -89 27v18q84 -3 140 -3q12 0 56 1.5t63 1.5q127 0 186 -36t59 -126q0 -62 -41 -104t-112 -53q80 -5 133.5 -45.5t53.5 -122.5q0 -94 -64.5 -143.5t-177.5 -49.5q-26 0 -77.5 1.5t-77.5 1.5q-61 0 -141 -4z M202 370q26 -2 66 -2q185 0 185 148q0 72 -43.5 103t-137.5 31q-50 0 -61 -11q-9 -9 -9 -83v-186zM202 338v-219q0 -58 11 -70q15 -18 109 -18q161 0 161 154q0 90 -53 122t-159 32q-38 0 -69 -1z" />
<glyph unicode="C" horiz-adv-x="631" d="M589 174q-20 -86 -81.5 -137t-159.5 -51q-78 0 -137 26t-94 72.5t-52 106t-17 130.5q0 174 85 271.5t237 97.5q111 0 170 -32q30 -17 30 -61q0 -41 -13 -113h-23q-6 88 -40 130q-37 47 -130 47q-111 0 -171.5 -80.5t-60.5 -235.5q0 -160 58 -241t160 -81q93 0 139.5 41 t76.5 118z" />
<glyph unicode="D" horiz-adv-x="697" d="M30 -2v19q78 11 89 24q11 12 11 78v441q0 58 -11 74q-16 21 -89 27v19q73 -4 130 -4q13 0 62.5 1.5t65.5 1.5q192 0 277.5 -76.5t85.5 -243.5q0 -174 -90 -267t-267 -93q-15 0 -62.5 1t-76.5 1q-70 0 -125 -3zM202 124q0 -56 13 -72q13 -19 84 -19q68 0 118 19t78.5 47.5 t45 73.5t21.5 86t5 95q0 152 -64 223t-220 71q-60 0 -71 -11q-10 -10 -10 -84v-429z" />
<glyph unicode="E" horiz-adv-x="580" d="M549 181q0 -61 -12 -136q-7 -45 -50 -45q-53 0 -173 1t-140 1q-71 0 -144 -4v19q78 11 89 24q11 12 11 78v441q0 63 -11 74q-20 21 -89 27v19q73 -4 153 -4q24 0 128 1t150 1q26 0 37 -9t11 -30q0 -35 -15 -127h-19q-8 90 -33 111q-18 15 -47.5 19.5t-110.5 4.5 q-43 0 -56.5 -3t-18.5 -10q-7 -12 -7 -81v-181q122 0 152 18q13 8 18.5 22.5t13.5 55.5h21q-2 -52 -2 -107q0 -60 2 -114h-21q-11 63 -34 80q-14 11 -45 14t-105 3v-215q0 -62 10 -79q10 -18 91 -18q122 0 163 30q13 9 20 16t19 33t24 70h20z" />
<glyph unicode="F" horiz-adv-x="548" d="M319 -2q-72 4 -156 4q-60 0 -133 -4v19q78 11 89 24q11 12 11 78v441q0 63 -11 74q-20 21 -89 27v19q73 -4 153 -4q24 0 130 1t152 1q27 0 38.5 -8.5t11.5 -28.5q0 -35 -14 -129h-20q-8 91 -32 111q-19 15 -49.5 19.5t-109.5 4.5q-72 0 -81 -13q-7 -12 -7 -81v-191 q131 0 161 18q13 8 19 22.5t14 54.5h20q-2 -52 -2 -107q0 -60 2 -114h-20q-11 62 -35 80q-21 17 -159 17v-207q0 -69 11 -85q12 -15 106 -24v-19z" />
<glyph unicode="G" horiz-adv-x="683" d="M595 -11h-23q-6 24 -12 36q-4 10 -16 10q-15 0 -37 -13q-62 -36 -160 -36q-144 0 -221.5 94t-77.5 241q0 173 89.5 271t241.5 98q123 0 182 -32q30 -17 30 -61q0 -31 -12 -113h-23q-6 85 -40 129q-36 48 -132 48q-119 0 -185.5 -82t-66.5 -236q0 -160 61 -242.5 t161 -82.5q109 0 150 50q16 19 16 69v82q0 50 -13 62q-14 12 -89 19v20q48 -3 132 -3q53 0 107 3v-20q-48 -4 -57 -16t-9 -66q0 -164 4 -229z" />
<glyph unicode="H" horiz-adv-x="750" d="M720 -2q-72 4 -138 4q-61 0 -134 -4v19q78 11 89 24q11 12 11 78v220h-346v-220q0 -65 9 -78q10 -16 91 -24v-19q-72 4 -140 4q-59 0 -132 -4v19q77 10 89 24q11 12 11 78v441q0 58 -11 74q-16 21 -89 27v19q73 -4 132 -4q68 0 140 4v-19q-73 -6 -88 -25q-12 -17 -12 -77 v-187h346v188q0 58 -11 74q-16 21 -89 27v19q73 -4 134 -4q66 0 138 4v-19q-73 -6 -88 -25q-12 -17 -12 -77v-440q0 -65 9 -78q10 -16 91 -24v-19z" />
<glyph unicode="I" horiz-adv-x="333" d="M302 -2q-72 4 -140 4q-59 0 -132 -4v19q77 10 89 24q11 12 11 78v441q0 58 -11 74q-16 21 -89 27v19q73 -4 132 -4q68 0 140 4v-19q-73 -6 -88 -25q-11 -16 -11 -77v-440q0 -65 8 -78q10 -16 91 -24v-19z" />
<glyph unicode="J" horiz-adv-x="444" d="M30 153h21q8 -63 32 -105q23 -36 70 -36q54 0 78 28q33 38 33 162v355q0 63 -11 77q-16 21 -95 27v19q73 -4 139 -4q60 0 132 4v-19q-67 -7 -82 -25q-10 -11 -10 -77v-355q0 -94 -35 -147q-26 -39 -71 -56.5t-88 -17.5q-65 0 -101 22q-24 13 -24 43q0 35 12 105z" />
<glyph unicode="K" horiz-adv-x="688" d="M202 266v-147q0 -66 7 -78q10 -16 95 -24v-19q-72 4 -142 4q-59 0 -132 -4v19q77 10 89 24q11 12 11 78v441q0 58 -11 74q-16 21 -89 27v19q73 -4 132 -4q65 0 137 4v-19q-71 -5 -87 -25q-10 -13 -10 -77v-253q192 197 249 269q32 40 32 60q0 12 -14.5 17.5t-56.5 7.5v20 q86 -4 128 -4q27 0 111 4v-20q-46 -4 -66 -13q-24 -10 -47 -38q-79 -90 -195 -206q71 -124 154 -249q60 -91 108 -117q20 -10 39 -10q18 0 32 5l8 -15q-36 -30 -92 -30q-58 0 -101 49q-60 67 -201 316q-10 -12 -88 -86z" />
<glyph unicode="L" horiz-adv-x="561" d="M547 180q0 -72 -10 -135q-7 -45 -44 -45q-53 0 -175.5 1t-143.5 1q-67 0 -144 -4v19q76 10 89 24q11 12 11 78v441q0 58 -11 74q-16 21 -89 27v19q73 -4 133 -4q79 0 151 4v-19q-84 -6 -99 -25q-13 -15 -13 -77v-430q0 -59 11 -77q11 -20 93 -20q124 0 161 25 q12 8 19 16.5t18 35t22 71.5h21z" />
<glyph unicode="M" horiz-adv-x="902" d="M268 -2q-72 4 -119 4q-53 0 -126 -4v19q78 11 89 24q10 11 13 78q12 336 12 433q0 65 -11 82q-14 21 -90 27v19q72 -3 92 -3q11 0 31 1t24 1q19 0 27.5 -4.5t14.5 -18.5q26 -63 106.5 -256t117.5 -281q166 374 242 540q9 20 31 20q3 0 23.5 -1t36.5 -1q14 0 86 3v-19 q-75 -6 -90 -26q-11 -17 -11 -75q0 -258 5 -441q1 -65 13 -78q11 -13 89 -24v-19q-73 4 -153 4q-49 0 -121 -4v19q39 4 60 8.5t26 8t8 9.5q6 12 6 76q0 67 -1 223t-1 238q-49 -109 -136 -300.5t-124 -273.5h-21q-207 480 -242 570l-3 -222t-3 -235q0 -61 7 -75q9 -19 92 -27 v-19z" />
<glyph unicode="N" horiz-adv-x="747" d="M274 -2q-72 4 -128 4q-46 0 -119 -4v19q79 11 90 24q11 12 12 78q1 40 4 440q0 58 -11 75q-16 21 -90 27v19q39 -4 87 -4q4 0 25 1t24 1q17 0 23 -4t15 -18q50 -71 192.5 -266.5t183.5 -256.5q-2 62 -6 426q0 67 -8 78q-4 6 -8.5 9t-25 7t-59.5 8v19q72 -4 126 -4 q48 0 121 4v-19q-79 -11 -90 -24q-11 -12 -11 -78q0 -80 -1 -277t-1 -296h-20q-122 170 -222.5 309.5t-147.5 203.5t-60 83q4 -199 4 -463q0 -68 7 -78q4 -6 8.5 -9t25.5 -7t60 -8v-19z" />
<glyph unicode="O" horiz-adv-x="685" d="M637 356q0 -163 -75.5 -266.5t-218.5 -103.5q-141 0 -218 97.5t-77 248.5q0 160 79 259.5t221 99.5q136 0 212.5 -95t76.5 -240zM552 353q0 150 -55.5 229t-149.5 79q-103 0 -159 -83t-56 -244q0 -156 58.5 -237t154.5 -81q104 0 155.5 81t51.5 256z" />
<glyph unicode="P" horiz-adv-x="582" d="M315 -2q-72 4 -149 4q-63 0 -136 -4v19q77 10 89 24q11 12 11 78v436q0 63 -11 79q-16 22 -89 27v19q75 -4 140 -4q12 0 58 1.5t65 1.5q130 0 189 -43t59 -138q0 -198 -270 -198q-36 0 -69 3v-184q0 -64 12 -79q11 -14 101 -23v-19zM202 334q46 -4 67 -4q96 0 144 39.5 t48 126.5q0 77 -44 115.5t-141 38.5q-54 0 -65 -11q-9 -9 -9 -83v-222z" />
<glyph unicode="Q" horiz-adv-x="685" d="M643 -104q-56 -56 -118 -56q-58 0 -105.5 34.5t-123.5 115.5q-116 17 -182 110.5t-66 228.5q0 160 79 261t221 101q136 0 212.5 -94t76.5 -239q0 -148 -64.5 -250t-184.5 -119q105 -103 170 -103q28 0 77 21zM552 355q0 151 -55.5 228.5t-149.5 77.5q-103 0 -159 -84.5 t-56 -245.5q0 -155 58.5 -235t154.5 -80q104 0 155.5 82t51.5 257z" />
<glyph unicode="R" horiz-adv-x="674" d="M315 -2q-72 4 -149 4q-63 0 -136 -4v19q77 10 89 24q11 12 11 78v436q0 63 -11 79q-14 22 -89 27v19q75 -4 140 -4q12 0 57 1.5t65 1.5q127 0 186 -41.5t59 -136.5q0 -66 -41.5 -113t-122.5 -65q71 -121 108 -173q66 -97 103 -117q16 -9 39 -9q20 0 32 4l6 -13 q-34 -28 -87 -28q-62 0 -101 49q-13 15 -26.5 34t-24 34.5t-28.5 46t-26.5 45.5t-33 57.5t-34.5 60.5q-10 -1 -30 -1q-26 0 -68 3v-197q0 -63 12 -78q10 -15 101 -24v-19zM202 347q48 -4 67 -4q93 0 140 36t47 120q0 77 -44 114t-136 37q-54 0 -65 -11q-9 -9 -9 -83v-209z " />
<glyph unicode="S" horiz-adv-x="525" d="M66 189q22 -79 59 -121q46 -52 133 -52q71 0 114.5 38.5t43.5 98.5q0 48 -33 83.5t-137 76.5q-105 41 -143 89.5t-38 115.5q0 80 60 126.5t158 46.5q103 0 154 -28q28 -14 28 -55q0 -47 -13 -109h-24q-4 81 -35 120q-34 42 -122 42q-60 0 -102.5 -31.5t-42.5 -89.5 q0 -51 31.5 -83t116.5 -68q114 -49 160 -92.5t46 -114.5q0 -88 -61 -142t-165 -54q-126 0 -183 47q-17 14 -23 34.5t-6 60.5q0 42 3 61h21z" />
<glyph unicode="T" horiz-adv-x="644" d="M456 -2q-72 4 -140 4q-60 0 -133 -4v19q78 10 89 24q11 12 11 77v528q-101 0 -136 -5.5t-55 -21.5q-25 -21 -36 -121h-20q-11 99 -11 142q0 38 51 38q46 0 133 -1t111 -1t113 1t135 1q50 0 50 -40q0 -43 -11 -140h-20q-9 100 -34 120q-21 17 -57 22.5t-140 5.5v-528 q0 -66 9 -77q12 -16 91 -24v-19z" />
<glyph unicode="U" horiz-adv-x="731" d="M614 559q0 -45 0.5 -137t0.5 -142q0 -102 -18 -160q-21 -64 -79 -98.5t-142 -34.5q-157 0 -216 81q-42 57 -42 208v284q0 58 -11 74q-16 22 -81 27v19q73 -4 127 -4q69 0 141 4v-19q-76 -7 -91 -25q-12 -14 -12 -77v-298q0 -100 21 -145q41 -90 170 -90q137 0 172 94 q20 54 20 158q0 142 -4 259q-3 85 -14 98q-15 19 -96 26v19q72 -4 132 -4q43 0 116 4v-19q-34 -5 -50.5 -8.5t-22 -6.5t-10.5 -9q-11 -12 -11 -78z" />
<glyph unicode="V" horiz-adv-x="671" d="M354 -5h-33q-10 29 -217 583q-20 53 -35 67q-16 13 -64 16v19q56 -4 131 -4q71 0 123 4v-19q-45 -4 -64 -10q-20 -7 -20 -24q0 -13 34 -112q17 -49 74.5 -205t73.5 -204q13 38 47 134.5t62 176.5t37 110q25 84 25 97q0 20 -20 26q-24 9 -65 11v19q49 -4 113 -4 q53 0 109 4v-19q-46 -5 -59 -16q-18 -11 -39 -71q-34 -95 -117.5 -320.5t-95.5 -258.5z" />
<glyph unicode="W" horiz-adv-x="1005" d="M304 -5h-34q-23 85 -80 285.5t-78 277.5q-22 80 -38 91q-9 6 -60 12v19q58 -4 137 -4q84 0 116 4v-19q-2 0 -19.5 -2.5t-29.5 -4.5q-34 -5 -34 -33q0 -37 38 -178q19 -70 48 -176.5t40 -147.5q32 98 190 557h35q172 -528 181 -557q19 71 57 197t45 152q36 131 36 152 q0 27 -23 32q-31 7 -60 9v19q68 -4 113 -4q62 0 110 4v-19q-47 -4 -62 -16q-21 -18 -41 -87l-174 -563h-35q-19 60 -91 279.5t-91 282.5q-42 -131 -196 -562z" />
<glyph unicode="X" horiz-adv-x="727" d="M212 126q-41 -55 -41 -72q0 -18 18 -23q33 -10 79 -14v-19q-100 4 -122 4q-53 0 -128 -4v19q34 2 57 18q33 25 77 82q80 106 172 222q-122 170 -161 227q-49 71 -65 79q-28 15 -62 16v19q79 -4 129 -4q79 0 134 4v-19q-40 -5 -50 -7q-18 -4 -24.5 -9t-6.5 -15 q0 -19 48 -88q49 -72 111 -157q50 66 108 148q51 72 51 96q0 17 -33 24q-27 5 -53 8v19q67 -4 118 -4q72 0 116 4v-19q-43 -2 -64 -20q-15 -13 -66 -82q-94 -127 -155 -204q6 -8 74.5 -99t103.5 -140q46 -64 76 -81q27 -16 56 -18v-19q-118 4 -137 4q-41 0 -141 -4v19 q53 5 69 11q20 7 20 25q0 15 -42 74q-100 136 -131 180q-35 -45 -135 -181z" />
<glyph unicode="Y" horiz-adv-x="677" d="M470 -2q-72 4 -141 4q-59 0 -132 -4v19q77 10 89 24q11 12 11 78v165q-31 53 -159 259q-57 91 -71 100q-25 17 -63 18v19q75 -4 129 -4q74 0 130 4v-19q-38 -4 -54 -8t-22 -9t-6 -15q0 -20 49 -101q77 -127 121 -194q55 83 116 182q52 88 52 112q0 16 -29 23 q-28 7 -57 10v18q48 -3 124 -3q82 0 116 3v-18q-46 -4 -65 -21q-27 -27 -77 -104q-29 -44 -82 -123t-79 -120v-174q0 -65 8 -78q10 -16 92 -24v-19z" />
<glyph unicode="Z" horiz-adv-x="623" d="M27 0v15l446 631q-221 0 -289 -6q-55 -6 -70 -41q-15 -36 -22 -108h-22q-11 84 -11 140q0 24 10.5 35t37.5 11h467v-16l-446 -624q304 0 353 15q36 12 59 51q19 30 40 94h24q-8 -121 -22 -159q-8 -21 -26.5 -29.5t-66.5 -8.5h-462z" />
<glyph unicode="[" horiz-adv-x="295" d="M268 -148h-174v870h172v-28h-108v-814h110v-28z" />
<glyph unicode="\" horiz-adv-x="385" d="M366 -112l-37 -10l-296 839l37 9z" />
<glyph unicode="]" horiz-adv-x="295" d="M28 722h173v-870h-171v28h107v814h-109v28z" />
<glyph unicode="^" horiz-adv-x="512" d="M433 356h-57l-119 254l-120 -254h-59l153 312h54z" />
<glyph unicode="_" horiz-adv-x="495" d="M497 -121h-499v48h499v-48z" />
<glyph unicode="`" horiz-adv-x="293" d="M227 536l-13 -9q-95 80 -130 120q-19 19 -19 37q0 13 9.5 20.5t21.5 7.5q21 0 39 -31q35 -60 92 -145z" />
<glyph unicode="a" horiz-adv-x="482" d="M482 28q-45 -36 -95 -36q-30 0 -44.5 15.5t-14.5 52.5q0 15 1 22l-6 1q-16 -43 -54 -69t-88 -26q-63 0 -100 37t-37 96q0 83 89 112q54 18 126 18q45 0 61 -1v30q0 83 -11 112q-17 45 -84 45t-89 -30q-20 -26 -26 -98h-17q-18 54 -18 86q0 29 26 45q48 28 138 28 q73 0 108 -26.5t35 -95.5q0 -35 -0.5 -124.5t-0.5 -102.5q0 -53 12 -70.5t37 -17.5q19 0 46 10zM320 223q-12 1 -52 1q-68 0 -107 -19q-49 -23 -49 -80q0 -47 23.5 -72.5t66.5 -25.5q34 0 63.5 20t42.5 55q12 33 12 71v50z" />
<glyph unicode="b" horiz-adv-x="537" d="M111 -18l-22 3q5 95 5 144v275q0 123 -2 172q-3 70 -11 88q-8 17 -28 17q-18 0 -42 -3l-3 13q64 31 109 31q25 0 33 -8q11 -10 11 -77q0 -118 -10 -291l6 -1q46 121 166 121q78 0 125 -58.5t47 -167.5q0 -119 -56.5 -185t-147.5 -66q-77 0 -134 40q-11 7 -16 7 q-9 0 -15 -12q-7 -17 -15 -42zM156 215q0 -100 12 -127q13 -31 46 -51t75 -20q63 0 96.5 54t33.5 161q0 197 -119 197q-61 0 -102.5 -58.5t-41.5 -155.5z" />
<glyph unicode="c" horiz-adv-x="453" d="M428 123q-17 -60 -64.5 -98t-116.5 -38q-97 0 -151 63.5t-54 163.5q0 117 63 184.5t164 67.5q84 0 121 -23q21 -13 21 -44q0 -38 -13 -94h-21q-3 70 -31 101q-26 32 -83 32q-68 0 -108.5 -52.5t-40.5 -155.5q0 -104 41.5 -153.5t103.5 -49.5q103 0 147 103z" />
<glyph unicode="d" horiz-adv-x="561" d="M556 29q-46 -37 -96 -37q-31 0 -48 15t-17 63q0 21 1 32l-5 1q-16 -46 -55 -80.5t-103 -34.5q-89 0 -140 60.5t-51 166.5q0 113 59 182t158 69q93 0 132 -61q-1 29 -2 87.5t-2 83.5q-3 69 -12 89q-7 16 -30 16q-16 0 -40 -3l-3 13q62 31 108 31q22 0 31 -7q14 -12 14 -78 q0 -37 -1.5 -229t-1.5 -291q0 -88 53 -88q12 0 45 12zM388 242q0 62 -8 98q-10 48 -42 73t-77 25q-63 0 -103 -48.5t-40 -159.5q0 -207 131 -207q64 0 101.5 59t37.5 160z" />
<glyph unicode="e" horiz-adv-x="468" d="M435 122q-22 -61 -69.5 -98t-112.5 -37q-100 0 -155.5 62t-55.5 167q0 115 58 182.5t156 67.5q84 0 127.5 -47t43.5 -133q0 -19 -10 -27t-37 -8h-266v-20q0 -108 42.5 -156t104.5 -48q51 0 91 26t61 77zM116 278h117q107 0 117 9q9 7 9 34q0 119 -106 119 q-53 0 -93.5 -40.5t-43.5 -121.5z" />
<glyph unicode="f" horiz-adv-x="317" d="M281 -2q-63 4 -130 4q-48 0 -113 -4v18q59 7 71 21q9 9 9 94v290h-81v20q53 8 69 20q11 10 13 38q4 103 31 150q44 73 142 73q56 0 87 -15q19 -9 19 -39q0 -25 -14 -83h-18q-12 65 -31 88q-17 22 -53 22q-38 0 -62 -25q-39 -40 -39 -175v-42h119v-32h-119v-286 q0 -79 9 -94q11 -19 91 -25v-18z" />
<glyph unicode="g" horiz-adv-x="498" d="M168 -3l-1 7h-9q-35 0 -57.5 18.5t-22.5 49.5q0 67 87 90q-40 16 -63 51t-23 82q0 78 48 124t128 46q54 0 93 -21q15 -3 35 -3q61 2 76 62h16q5 -22 5 -50q0 -23 -15 -35t-35 -12q-28 0 -45 5q39 -43 39 -102q0 -73 -46.5 -117t-129.5 -47q-59 -2 -64 -3 q-26 -3 -41.5 -16t-15.5 -32q0 -30 54 -39q15 -2 145 -4q78 -1 115 -29.5t37 -90.5q0 -70 -63.5 -119t-176.5 -49q-93 0 -143 32.5t-50 88.5q0 82 123 113zM411 -85q0 52 -47 69q-30 10 -98 10q-50 0 -90 -15q-72 -29 -72 -91q0 -48 39.5 -72t100.5 -24q83 0 125 35t42 88z M356 298q0 70 -27.5 106t-74.5 36q-49 0 -78 -35t-29 -103q0 -67 28.5 -99t74.5 -32q47 0 76.5 31.5t29.5 95.5z" />
<glyph unicode="h" horiz-adv-x="569" d="M261 -2q-63 4 -121 4q-44 0 -109 -4v18q59 6 70 20q10 14 10 84v216q0 81 -4 241q-1 67 -12 88q-8 17 -29 17q-20 0 -42 -3l-3 13q62 30 110 30q21 0 32 -8q12 -11 12 -77q0 -137 -9 -293l5 -1q23 60 70 92t103 32q97 0 110 -73q5 -25 5 -111v-137q0 -59 8 -87 q8 -29 40 -29q26 0 52 11l7 -12q-51 -37 -98 -37q-32 0 -49 13q-23 19 -23 85v197q0 67 -9 92q-17 50 -70 50q-33 0 -66.5 -23t-51.5 -61q-25 -52 -25 -119v-105q0 -70 9 -83q9 -16 78 -22v-18z" />
<glyph unicode="i" horiz-adv-x="291" d="M267 -2q-61 4 -120 4q-44 0 -109 -4v18q57 4 70 20q11 15 11 84v148q0 112 -16 140q-10 16 -31 16q-5 0 -35 -4l-4 14q60 30 110 30q22 0 32 -10t10 -49q0 -10 -1.5 -70t-1.5 -80v-134q0 -72 8 -85q9 -15 77 -20v-18zM184 637q0 -23 -14 -37t-34 -14q-21 0 -35 13t-14 37 q0 25 14.5 38.5t35.5 13.5q20 0 33.5 -13.5t13.5 -37.5z" />
<glyph unicode="j" horiz-adv-x="280" d="M-49 -119h17q14 -57 31 -73q16 -16 38 -16q34 0 54 24q17 19 21 54t4 113v285q0 111 -17 140q-10 16 -30 16q-15 0 -35 -4l-4 14q58 30 109 30q23 0 31 -10q11 -12 11 -49q0 -11 -1 -67t-1 -76q0 -42 0.5 -139.5t0.5 -139.5q0 -52 -5 -82.5t-23 -63.5q-21 -40 -56.5 -57 t-66.5 -17q-42 0 -66 11q-19 9 -19 41q0 30 7 66zM180 637q0 -23 -14 -37t-34 -14q-21 0 -35 13t-14 37q0 25 14.5 38.5t35.5 13.5q20 0 33.5 -13.5t13.5 -37.5z" />
<glyph unicode="k" horiz-adv-x="537" d="M262 -2q-45 4 -120 4q-46 0 -111 -4v18q59 6 70 20q10 14 10 84v216q0 81 -4 241q-1 67 -12 88q-8 17 -28 17q-19 0 -43 -3l-3 13q62 30 110 30q21 0 32 -8q12 -11 12 -77q0 -25 -0.5 -150t-0.5 -206q0 -39 -1 -66q96 89 136 133q38 41 38 63q0 11 -15 17.5t-57 8.5v18 q86 -4 116 -4q26 0 110 4v-18q-44 -4 -64 -13q-18 -10 -47 -39q-21 -21 -105 -102q28 -55 73 -129q55 -88 103 -119q15 -11 35 -11q16 0 33 7l7 -14q-14 -11 -37 -19.5t-40 -8.5q-34 0 -55 10.5t-42 38.5q-56 73 -123 203q-7 -7 -33 -30t-32 -29v-61q0 -68 8 -84 q9 -16 80 -21v-18z" />
<glyph unicode="l" horiz-adv-x="284" d="M261 -2q-63 4 -122 4q-43 0 -108 -4v18q59 6 70 20q10 14 10 84v216q0 81 -4 241q-1 67 -12 88q-8 17 -29 17q-18 0 -42 -3l-3 13q62 30 110 30q21 0 32 -8q12 -12 12 -77q0 -32 -0.5 -203.5t-0.5 -312.5q0 -69 9 -84q11 -15 78 -21v-18z" />
<glyph unicode="m" horiz-adv-x="853" d="M266 -2q-74 4 -116 4q-30 0 -112 -4v18q58 5 70 19q11 11 11 85v166q0 100 -17 125q-10 15 -29 15q-13 0 -42 -6l-4 14q60 30 112 30q22 0 31 -10q8 -9 8 -45t-5 -66l6 -1q14 56 61 90.5t106 34.5q109 0 109 -103q0 -10 -1 -19l6 -1q15 56 60.5 89.5t103.5 33.5 q95 0 112 -72q6 -24 6 -112v-142q0 -47 7 -80q8 -31 39 -31q28 0 55 11l7 -12q-55 -37 -100 -37q-28 0 -45 12q-15 12 -20.5 29t-5.5 57v200q0 61 -9 91q-13 48 -67 48q-34 0 -67.5 -21.5t-50.5 -58.5q-23 -53 -23 -115v-114q0 -71 10 -84q10 -15 80 -20v-18q-78 4 -125 4 q-18 0 -100 -4v18q47 4 60 17q12 13 12 87v166q0 64 -9 94q-14 49 -67 49q-35 0 -68 -21t-51 -59q-22 -47 -22 -115v-114q0 -73 10 -86q5 -7 18 -10.5t56 -7.5v-18z" />
<glyph unicode="n" horiz-adv-x="577" d="M574 29q-51 -37 -98 -37q-34 0 -49 14q-23 20 -23 83v198q0 71 -9 95q-18 47 -71 47q-33 0 -66 -23t-51 -61q-25 -52 -25 -119v-101q0 -76 9 -89q10 -15 79 -20v-18q-64 4 -123 4q-44 0 -109 -4v18q62 7 71 20q10 14 10 88v144q0 111 -16 140q-10 16 -31 16q-5 0 -35 -4 l-4 14q58 30 105 30q23 0 32 -10q9 -9 9 -42q0 -26 -6 -68l6 -1q23 60 70 92t103 32q96 0 110 -72q5 -25 5 -112v-137q0 -64 8 -86q10 -30 40 -30q25 0 52 11z" />
<glyph unicode="o" horiz-adv-x="516" d="M474 241q0 -107 -55 -180t-166 -73q-99 0 -155 66.5t-56 170.5q0 105 59.5 173t166.5 68q98 0 152 -62t54 -163zM401 226q0 105 -39.5 159.5t-101.5 54.5q-64 0 -104 -52t-40 -155q0 -109 40.5 -163.5t103.5 -54.5q141 0 141 211z" />
<glyph unicode="p" horiz-adv-x="541" d="M261 -225q-65 4 -127 4q-50 0 -115 -4v18q57 7 71 21q9 9 9 95v357q0 111 -16 141q-10 17 -31 17q-5 0 -35 -4l-4 14q60 30 106 30q23 0 31 -10q10 -10 10 -42q0 -18 -6 -68l6 -1q49 123 171 123q78 0 123 -58.5t45 -167.5q0 -118 -58.5 -183t-148.5 -65q-91 0 -132 56 q2 -35 2 -136q0 -80 9 -94q10 -17 90 -25v-18zM161 215q0 -101 12 -129q13 -31 45 -48.5t73 -17.5q62 0 97 52.5t35 160.5q0 113 -30.5 155t-81.5 42q-62 0 -106 -60t-44 -155z" />
<glyph unicode="q" horiz-adv-x="555" d="M526 -225q-65 4 -115 4q-64 0 -127 -4v18q78 6 90 24q9 13 9 94q0 118 6 189l-6 1q-15 -47 -52.5 -80t-100.5 -33q-87 0 -137.5 59.5t-50.5 166.5q0 114 58 183t157 69q72 0 123 -34q10 -7 18 -7q9 0 15 13q11 22 18 42l20 -2q-5 -95 -5 -143v-427q0 -84 10 -95 q13 -13 70 -20v-18zM383 242q0 62 -8 98q-10 48 -41 73t-75 25q-141 0 -141 -208q0 -209 128 -209q63 0 100 59t37 162z" />
<glyph unicode="r" horiz-adv-x="403" d="M281 -2q-63 4 -131 4q-47 0 -112 -4v18q59 5 72 22q9 12 9 90v140q0 110 -20 139q-9 17 -34 17q-4 0 -32 -4l-4 14q60 30 106 30q21 0 30 -9q12 -12 12 -46q0 -32 -3 -66l5 -1q18 58 58.5 91.5t88.5 33.5q30 0 43 -9t13 -34q0 -19 -14 -84h-18q-8 75 -55 75 q-24 0 -49.5 -16.5t-41.5 -52.5q-22 -51 -22 -120v-101q0 -73 11 -87q14 -19 88 -22v-18z" />
<glyph unicode="s" horiz-adv-x="410" d="M71 142q17 -54 43 -85q34 -39 99 -39q46 0 72 22t26 55q0 36 -21.5 57.5t-96.5 49.5q-72 28 -98 61t-26 77q0 58 43.5 92t115.5 34q73 0 108 -21q19 -12 19 -38q0 -37 -12 -85h-20q-4 60 -25 86q-21 29 -76 29q-47 0 -73.5 -19.5t-26.5 -56.5q0 -33 24 -55t92 -47 q78 -29 102.5 -60t24.5 -75q0 -61 -45 -98.5t-114 -37.5q-98 0 -132 34q-13 14 -17 34.5t-6 83.5z" />
<glyph unicode="t" horiz-adv-x="330" d="M142 582h29v-129h128v-32h-128v-280q0 -50 4 -70q4 -24 16 -33t35 -9q46 0 90 37l10 -11q-47 -65 -125 -65q-95 0 -95 104q0 3 1 126.5t1 200.5h-83v21q59 8 77 24q17 16 40 116z" />
<glyph unicode="u" horiz-adv-x="576" d="M565 29q-46 -37 -96 -37q-32 0 -48.5 14t-16.5 56q0 14 2 36l-6 1q-50 -111 -169 -111q-65 0 -93 34t-29 105q0 8 1 57.5t1 96.5q0 111 -12 128q-12 15 -31 15q-6 0 -34 -4l-4 14q58 30 107 30q21 0 31 -10q11 -12 11 -44q0 -13 -2.5 -80.5t-2.5 -120.5q0 -106 8 -131 q16 -52 75 -52q33 0 65.5 19t49.5 52q25 45 25 119v73q0 96 -15 120q-9 15 -31 15q-13 0 -41 -4l-4 14q58 30 115 30q22 0 31 -11q11 -12 11 -43q0 -16 -1 -68t-1 -58v-161q0 -94 53 -94q12 0 45 12z" />
<glyph unicode="v" horiz-adv-x="514" d="M266 -7h-28q-25 66 -157 376q-20 48 -32 57q-14 10 -44 12v17q57 -4 105 -4q69 0 118 4v-17q-42 -5 -61 -10q-22 -6 -22 -26q0 -16 38 -113q12 -29 41.5 -99.5t44.5 -109.5q83 194 97 230q26 68 26 92q0 20 -22 26q-19 6 -61 10v17q49 -4 111 -4q32 0 88 4v-17 q-29 -2 -44 -13q-12 -9 -32 -56q-19 -44 -76.5 -172.5t-89.5 -203.5z" />
<glyph unicode="w" horiz-adv-x="746" d="M228 -7h-28q-86 286 -114 376q-14 46 -28 57q-14 10 -44 12v17q57 -4 104 -4q67 0 116 4v-17q-3 0 -26 -4t-33 -6q-23 -6 -23 -27q0 -27 24 -111q47 -164 57 -201q14 37 62.5 165t75.5 198h27q20 -60 133 -362q16 55 37.5 125t28.5 94q17 58 17 91q0 22 -22 28 q-20 6 -61 10v17q49 -4 112 -4q33 0 89 4v-17q-28 -2 -42 -12q-19 -13 -34 -59l-61 -183t-64 -191h-27q-7 19 -57 149.5t-79 208.5q-56 -147 -140 -358z" />
<glyph unicode="x" horiz-adv-x="531" d="M213 -1q-48 4 -112 4q-32 0 -89 -4v18q29 2 43 12q20 14 56 55q24 28 66.5 75.5t54.5 60.5q-57 70 -117 151q-28 37 -50 55q-14 10 -39 12v17q57 -4 117 -4q54 0 103 4v-17q-40 -5 -54 -8q-21 -6 -21 -19t28 -49q34 -46 78 -100l78 96q29 37 29 54q0 14 -21 18 q-15 3 -52 8v17q49 -4 103 -4q26 0 83 4v-17q-22 -2 -40 -15q-17 -13 -50 -53q-32 -40 -112 -131q17 -21 60 -73.5t66 -81.5q30 -37 56 -55q16 -10 41 -12v-18q-57 4 -112 4q-75 0 -124 -4v18q44 3 66 9q14 4 14 17q0 14 -27 48l-84 106q-10 -11 -42 -48t-49 -59 q-30 -39 -30 -47q0 -12 14 -16q25 -7 69 -10v-18z" />
<glyph unicode="y" horiz-adv-x="514" d="M45 -115q11 -47 28 -63q12 -12 34 -12q25 0 48 23q42 42 90 171q-68 155 -163 365q-22 48 -33 56q-13 11 -43 13v17q57 -4 106 -4q69 0 118 4v-17q-48 -7 -60 -10q-22 -6 -22 -26q0 -30 38 -113q39 -87 93 -212q76 194 90 233q23 64 23 91q0 21 -22 27q-7 2 -60 10v17 q49 -4 110 -4q33 0 89 4v-17q-29 -2 -44 -13q-14 -10 -32 -56t-151 -376q-42 -107 -78 -162q-44 -68 -113 -68q-32 0 -52 14t-20 44q0 21 8 64h18z" />
<glyph unicode="z" horiz-adv-x="441" d="M19 0v13l295 413q-121 0 -181 -6q-36 -4 -47 -29q-13 -28 -19 -71h-21q-9 54 -9 98q0 35 37 35h326v-13l-295 -409q189 0 226 10q22 7 39 35q16 25 31 67l20 -2q-4 -80 -16 -112q-11 -29 -62 -29h-324z" />
<glyph unicode="{" horiz-adv-x="320" d="M290 -154q-103 0 -142.5 34t-39.5 121q0 23 1.5 71t1.5 71q0 69 -19.5 100.5t-74.5 32.5v21q58 3 75 32.5t17 110.5q0 17 -1.5 59t-1.5 63q0 85 37 126t147 41v-27q-70 0 -94 -24t-24 -104v-139q0 -70 -18 -102.5t-72 -45.5q53 -11 71.5 -40.5t18.5 -99.5v-150 q0 -73 25 -98t93 -25v-28z" />
<glyph unicode="|" horiz-adv-x="248" d="M156 -148h-64v870h64v-870z" />
<glyph unicode="}" horiz-adv-x="320" d="M30 729q103 0 142.5 -34t39.5 -121q0 -24 -1.5 -71t-1.5 -71q0 -69 19.5 -100.5t74.5 -32.5v-21q-58 -3 -75 -32.5t-17 -110.5q0 -17 1.5 -59t1.5 -63q0 -85 -37 -126t-147 -41v27q70 0 93 24t23 104v139q0 70 19 102.5t73 45.5q-53 11 -72 41t-19 99v150q0 73 -24.5 98 t-92.5 25v28z" />
<glyph unicode="~" horiz-adv-x="577" d="M93 231l-36 32q58 86 134 86q24 0 45 -8t67 -35q59 -32 85 -32q50 0 97 68l35 -30q-61 -89 -132 -89q-44 0 -100 33q-46 27 -63.5 34.5t-35.5 7.5q-51 0 -96 -67z" />
<glyph unicode="&#xa1;" horiz-adv-x="316" d="M126 261h29q4 -75 17 -238.5t13 -189.5q0 -61 -47 -61q-23 0 -34.5 13.5t-11.5 46.5q0 23 6 95t15 174t13 160zM85 418q0 23 15 39t39 16q23 0 38.5 -16t15.5 -39t-15.5 -39t-37.5 -16q-24 0 -39.5 15.5t-15.5 39.5z" />
<glyph unicode="&#xa2;" horiz-adv-x="481" d="M283 -97h-35v95q-93 4 -144.5 66.5t-51.5 160.5q0 108 53.5 173.5t142.5 76.5v102h35v-100q81 -2 117 -23q22 -14 22 -44q0 -42 -10 -94h-21q-3 64 -30 98q-27 32 -78 35v-411q95 7 136 103l22 -7q-16 -55 -57 -91.5t-101 -42.5v-97zM128 241q0 -185 120 -202v408 q-57 -9 -88.5 -61t-31.5 -145z" />
<glyph unicode="&#xa3;" horiz-adv-x="595" d="M548 175q-2 -73 -13 -127q-5 -24 -15 -36t-31 -12q-53 0 -134.5 0.5t-101.5 0.5q-157 0 -209 -2v39q55 14 94 46q58 52 58 142q0 22 -4 50h-118v36h112q-1 8 -8.5 40.5t-12.5 61.5t-5 50q0 94 55 146t159 52q97 0 138 -26q21 -14 21 -48q0 -51 -10 -103h-25 q-4 78 -29 109q-32 39 -95 39q-60 0 -99.5 -34.5t-39.5 -115.5q0 -23 4 -53t11 -65.5t9 -52.5h144v-36h-140q3 -27 3 -42q0 -109 -110 -171q63 1 144 1q150 0 180 20q26 18 46 92z" />
<glyph unicode="&#xa4;" horiz-adv-x="610" d="M500 65l-57 63q-57 -50 -140 -50q-78 0 -137 50l-56 -64l-35 35l62 59q-49 60 -49 146q0 81 49 143l-63 61l37 35l54 -64q60 51 141 51q78 0 137 -50l56 61l34 -32l-62 -58q50 -60 50 -147q0 -84 -49 -144l62 -60zM473 304q0 78 -47.5 130.5t-120.5 52.5q-74 0 -122 -52 t-48 -129q0 -81 47.5 -133t122.5 -52q73 0 120.5 52t47.5 131z" />
<glyph unicode="&#xa5;" horiz-adv-x="719" d="M572 212h-182v-93q0 -65 9 -78q10 -16 91 -24v-19q-72 4 -140 4q-59 0 -132 -4v19q77 10 89 24q11 12 11 78v93h-182v33h182v22l-38 63h-144v33h123q-90 142 -95 150q-57 91 -71 100q-25 17 -63 18v19q112 -4 129 -4q47 0 129 4v-19q-39 -4 -53 -7q-29 -7 -29 -24 q0 -18 50 -101q43 -73 116 -183q16 24 54 82.5t57 87.5q53 83 53 113q0 16 -29 23q-22 6 -58 9v19q64 -4 125 -4q71 0 116 4v-19q-44 -2 -65 -21q-24 -22 -77 -104q-45 -69 -99 -143h123v-33h-146l-36 -54v-31h182v-33z" />
<glyph unicode="&#xa6;" horiz-adv-x="248" d="M156 373h-64v323h64v-323zM156 -77h-64v323h64v-323z" />
<glyph unicode="&#xa7;" horiz-adv-x="470" d="M81 -26h17q13 -63 34 -89q30 -35 88 -35q54 0 80.5 29t26.5 70q0 30 -27.5 66t-111.5 106q-78 66 -106.5 105.5t-28.5 83.5q0 91 104 139q-50 49 -50 113q0 59 47 96.5t131 37.5q58 0 92 -17q17 -9 19 -39q0 -37 -9 -82h-17q-12 66 -29 86q-18 23 -65 23q-54 0 -81 -23 t-27 -62q0 -18 5.5 -33.5t32 -46.5t76.5 -70q89 -70 118.5 -110t29.5 -83q0 -95 -104 -148q62 -63 62 -126q0 -56 -45.5 -99.5t-125.5 -43.5q-83 0 -125 26q-19 12 -19 40q0 48 8 86zM375 210q0 26 -30 64.5t-112 109.5q-2 1 -44 34q-6 5 -15 5q-7 0 -15 -4 q-21 -11 -35 -33.5t-14 -48.5q0 -32 23.5 -64t89.5 -90q7 -7 68 -56q9 -7 17 -7q12 0 19 5q48 30 48 85z" />
<glyph unicode="&#xa8;" horiz-adv-x="290" d="M111 607q0 -18 -12 -29.5t-29 -11.5q-16 0 -27 11.5t-11 29.5t11 29.5t28 11.5t28.5 -11.5t11.5 -29.5zM258 607q0 -18 -11.5 -29.5t-28.5 -11.5q-16 0 -27.5 11.5t-11.5 29.5t11.5 29.5t28.5 11.5q16 0 27.5 -11.5t11.5 -29.5z" />
<glyph unicode="&#xa9;" horiz-adv-x="794" d="M742 341q0 -157 -96.5 -255t-248.5 -98t-248.5 98t-96.5 255q0 153 98 249.5t247 96.5t247 -96.5t98 -249.5zM704 340q0 144 -86 229.5t-221 85.5q-136 0 -222 -85t-86 -230q0 -144 86.5 -233t221.5 -89q134 0 220.5 89t86.5 233zM569 236q-17 -55 -59 -86.5t-107 -31.5 q-95 0 -144 58.5t-49 151.5q0 112 56.5 172t157.5 60q73 0 108 -19q19 -9 19 -38q0 -39 -7 -78h-18q-5 57 -26 83q-22 29 -80 29q-143 0 -143 -194q0 -101 36 -149.5t100 -48.5q53 0 83.5 24.5t53.5 72.5z" />
<glyph unicode="&#xaa;" horiz-adv-x="391" d="M388 335q-38 -28 -79 -28q-49 0 -49 48q0 13 1 17l-4 2q-24 -69 -104 -69q-49 0 -77.5 26.5t-28.5 69.5q0 58 69 80q42 13 94 13q32 0 44 -1v22q0 62 -8 82q-12 31 -61 31q-46 0 -63 -22q-16 -20 -22 -73h-14q-14 39 -14 66q0 21 20 32q37 20 107 20q60 0 87.5 -20 t27.5 -69q0 -24 -0.5 -87.5t-0.5 -73.5q0 -38 9.5 -50.5t27.5 -12.5q12 0 33 8zM254 474q-9 1 -35 1q-43 0 -73 -13q-35 -14 -35 -59q0 -67 62 -67q22 0 41.5 13t28.5 36q11 26 11 55v34z" />
<glyph unicode="&#xab;" horiz-adv-x="423" d="M234 76l-15 -14q-33 31 -96.5 88.5t-80.5 73.5q-10 10 -10 23q0 12 9 21q87 76 175 156l14 -12q-21 -28 -69.5 -89t-58.5 -75q17 -24 132 -172zM387 76l-15 -14q-33 31 -96.5 88.5t-80.5 73.5q-10 10 -10 23q0 12 9 21q23 20 175 156l14 -12q-21 -28 -67.5 -87t-60.5 -77 q17 -24 132 -172z" />
<glyph unicode="&#xac;" horiz-adv-x="600" d="M514 69h-51v197h-395v51h446v-248z" />
<glyph unicode="&#xad;" horiz-adv-x="247" d="M226 228h-204v59h204v-59z" />
<glyph unicode="&#xae;" horiz-adv-x="794" d="M742 341q0 -157 -96.5 -255t-248.5 -98t-248.5 98t-96.5 255q0 153 98 249.5t247 96.5t247 -96.5t98 -249.5zM704 340q0 144 -86 229.5t-221 85.5q-136 0 -222 -85t-86 -230q0 -144 86.5 -233t221.5 -89q134 0 220.5 89t86.5 233zM408 141q-66 2 -94 2q-20 0 -86 -2v12 q43 6 52 14q7 10 7 48v263q0 38 -7 48q-10 12 -52 17v12q51 -3 88 -3q7 0 37 1t42 1q76 0 112 -25.5t36 -82.5q0 -85 -94 -106q37 -66 63 -106q35 -56 62 -71q10 -4 19 -4q10 0 19 4l5 -11q-8 -7 -27 -12.5t-32 -5.5q-37 0 -66 32q-11 13 -23.5 32t-20.5 33.5t-26 49 t-28 52.5h-15q-20 0 -36 1v-118q0 -39 7 -49q5 -8 58 -14v-12zM343 354q13 -1 36 -1q53 0 78 21t25 71q0 46 -23.5 68t-75.5 22q-30 0 -35 -6t-5 -49v-126z" />
<glyph unicode="&#xaf;" horiz-adv-x="291" d="M264 603v-53h-237v53h237z" />
<glyph unicode="&#xb0;" horiz-adv-x="325" d="M285 572q0 -57 -36.5 -91t-86.5 -34q-51 0 -86.5 33t-35.5 91t35.5 91.5t86.5 33.5t87 -32t36 -92zM245 571q0 40 -23 66t-60 26q-36 0 -59 -25.5t-23 -65.5q0 -41 22.5 -66.5t59.5 -25.5q39 0 61 25t22 66z" />
<glyph unicode="&#xb1;" horiz-adv-x="578" d="M316 159h-52v204h-210v50h210v205h52v-205h208v-50h-208v-204zM524 45h-470v50h470v-50z" />
<glyph unicode="&#xb2;" horiz-adv-x="354" d="M303 477v-48q-40 2 -140 2q-99 0 -138 -2v25q121 89 165 150t44 115q0 85 -76 85q-43 0 -66 -26q-19 -22 -24 -75h-17q-6 40 -6 66q0 24 19 35q37 21 99 21q126 0 126 -106q0 -66 -53 -123.5t-149 -119.5q105 0 216 1z" />
<glyph unicode="&#xb3;" horiz-adv-x="354" d="M43 536h14q5 -49 23 -71q21 -25 68 -25q97 0 97 100q0 83 -95 83q-5 0 -14.5 -0.5t-12.5 -0.5v22q7 -1 27 -1q80 0 80 87q0 74 -75 74q-44 0 -66 -25q-15 -17 -20 -67h-15q-5 50 -5 57q0 23 20 35q36 21 93 21q124 0 124 -93q0 -34 -21.5 -59.5t-61.5 -36.5 q46 -5 72.5 -29.5t26.5 -64.5q0 -57 -43.5 -89.5t-109.5 -32.5q-56 0 -92 22q-21 11 -21 35q0 26 7 59z" />
<glyph unicode="&#xb4;" horiz-adv-x="293" d="M79 527l-14 9q48 71 92 145q18 31 39 31q12 0 21.5 -7.5t9.5 -20.5q0 -18 -18 -37q-40 -44 -130 -120z" />
<glyph unicode="&#xb5;" horiz-adv-x="593" d="M576 29q-45 -37 -95 -37q-33 0 -49.5 13.5t-16.5 56.5q0 14 2 36l-5 1q-49 -111 -146 -111q-64 0 -88 44q1 -55 7 -125t6 -91q0 -36 -37 -36q-36 0 -36 37q0 13 2 189.5t2 274.5q0 111 -10 128q-9 15 -31 15q-6 0 -34 -4l-4 14q59 30 107 30q21 0 31 -10q11 -12 11 -44 q0 -13 -3 -76t-3 -116q0 -95 9 -127q13 -57 74 -57q81 0 114 63q25 47 25 119v73q0 96 -15 120q-9 15 -31 15t-41 -4l-4 14q59 30 115 30q21 0 31 -10q11 -12 11 -44q0 -16 -1 -68t-1 -58v-161q0 -48 15 -71t39 -23q11 0 44 12z" />
<glyph unicode="&#xb6;" horiz-adv-x="631" d="M189 -203l-5 18q97 23 123 109q21 70 23 297q-34 -9 -74 -9q-35 0 -65.5 9t-60 30.5t-47 65.5t-17.5 106q0 254 290 254q106 0 247 3v-19q-64 -5 -85 -22q-14 -11 -14 -77q0 -7 0.5 -48t1 -100t0.5 -110q0 -14 0.5 -63t0.5 -94q0 -142 -19 -195q-19 -55 -54 -82t-95 -41 l-5 18q50 19 72.5 41.5t32.5 56.5q20 71 20 285v370q0 31 -9 39t-30 8q-25 0 -35 -10q-12 -12 -12 -65q0 -51 2 -289q0 -14 0.5 -63t0.5 -94q0 -156 -25 -208q-27 -56 -65.5 -83.5t-96.5 -37.5z" />
<glyph unicode="&#xb7;" horiz-adv-x="204" d="M156 244q0 -24 -15 -40t-40 -16q-23 0 -38.5 16.5t-15.5 39.5t15.5 39t37.5 16q25 0 40.5 -15.5t15.5 -39.5z" />
<glyph unicode="&#xb8;" horiz-adv-x="285" d="M68 -257l-2 20q50 8 73 25.5t23 47.5q0 28 -39 48q-25 14 -25 35q0 20 37 85h24q-21 -43 -21 -54q0 -13 12 -20q69 -34 69 -81q0 -51 -46 -77.5t-105 -28.5z" />
<glyph unicode="&#xb9;" horiz-adv-x="354" d="M268 429q-62 2 -89 2q-56 0 -90 -2v15q52 5 59 13q8 9 8 52v275q-34 -6 -65 -9l-2 18q63 12 118 34q-2 -58 -2 -117v-201q0 -41 5 -51q6 -9 58 -14v-15z" />
<glyph unicode="&#xba;" horiz-adv-x="393" d="M365 487q0 -78 -41.5 -129.5t-127.5 -51.5q-76 0 -118.5 47t-42.5 123q0 77 45.5 126t127.5 49q76 0 116.5 -44.5t40.5 -119.5zM301 476q0 76 -27.5 115.5t-72.5 39.5q-46 0 -73.5 -37.5t-27.5 -111.5q0 -79 28 -117.5t73 -38.5q100 0 100 150z" />
<glyph unicode="&#xbb;" horiz-adv-x="423" d="M197 410l15 14q65 -61 177 -162q11 -11 11 -23q0 -11 -10 -21q-23 -20 -175 -156l-14 12q21 28 67.5 87t60.5 77q-17 24 -132 172zM44 410l15 14q63 -58 177 -162q11 -11 11 -23q0 -11 -10 -21q-149 -133 -175 -156l-14 12q13 17 60.5 77t67.5 87q-17 24 -132 172z" />
<glyph unicode="&#xbc;" horiz-adv-x="807" d="M598 658l-347 -677h-38l347 677h38zM266 264q-62 2 -89 2q-56 0 -90 -2v14q52 5 59 13q8 9 8 52v276q-34 -6 -65 -9l-2 17q58 11 118 35q-2 -58 -2 -117v-202q0 -44 6 -51q8 -10 57 -14v-14zM715 -1q-34 2 -87 2q-52 0 -87 -2v15q48 6 56 14q7 8 7 45v32h-185v20 q163 220 198 268h36q0 -15 -0.5 -46.5t-0.5 -47.5v-155h67v-39h-67v-32q0 -36 6 -45q8 -10 57 -14v-15zM463 144h141q0 155 2 198q-52 -75 -143 -198z" />
<glyph unicode="&#xbd;" horiz-adv-x="807" d="M577 658l-347 -677h-38l347 677h38zM258 264q-62 2 -89 2q-56 0 -90 -2v14q52 5 59 13q8 9 8 52v276q-34 -6 -65 -9l-2 17q58 11 118 35q-2 -58 -2 -117v-202q0 -44 6 -51q8 -10 57 -14v-14zM739 46v-48q-40 2 -140 2q-99 0 -138 -2v25q121 89 165 150t44 115 q0 85 -76 85q-43 0 -66 -26q-19 -22 -24 -75h-17q-6 40 -6 66q0 24 19 35q37 21 99 21q126 0 126 -106q0 -66 -53 -123.5t-149 -119.5q105 0 216 1z" />
<glyph unicode="&#xbe;" horiz-adv-x="807" d="M634 658l-347 -677h-38l347 677h38zM81 371h14q5 -49 23 -71q21 -25 68 -25q97 0 97 100q0 82 -95 82q-20 0 -27 -1v23q7 -1 27 -1q80 0 80 86q0 75 -75 75q-43 0 -66 -26q-15 -17 -20 -66h-15q-5 50 -5 56q0 23 20 35q36 21 93 21q59 0 91.5 -23t32.5 -69 q0 -34 -21.5 -60t-61.5 -36q47 -6 73 -30t26 -64q0 -57 -43.5 -90t-109.5 -33q-54 0 -92 23q-21 11 -21 35t7 59zM745 -1q-34 2 -87 2q-52 0 -87 -2v15q48 6 56 14q7 8 7 45v32h-185v20q163 220 198 268h36q0 -15 -0.5 -46.5t-0.5 -47.5v-155h67v-39h-67v-32q0 -36 6 -45 q8 -10 57 -14v-15zM493 144h141q0 155 2 198q-52 -75 -143 -198z" />
<glyph unicode="&#xbf;" horiz-adv-x="446" d="M234 263l25 8q22 -46 22 -84q0 -37 -21.5 -63t-80.5 -67q-77 -55 -77 -134q0 -51 27 -82t76 -31q75 0 106 39q18 21 23.5 46.5t7.5 65.5h23q12 -62 12 -99t-24 -51q-55 -32 -149 -32q-84 0 -130 36.5t-46 102.5q0 56 24.5 93.5t93.5 85.5q2 1 20.5 13.5t23.5 16.5t19 16 t19 19.5t10 20t5 25.5q0 37 -9 55zM193 417q0 23 15.5 39t39.5 16q23 0 38 -16t15 -39t-15 -39t-37 -16q-25 0 -40.5 16t-15.5 39z" />
<glyph unicode="&#xc0;" horiz-adv-x="671" d="M234 -2q-74 4 -118 4q-37 0 -111 -4v19q33 5 48 10t26 18q9 10 60 142l108 284q14 37 75 210h32q24 -77 68 -194l120 -321q34 -92 51 -118q12 -17 26 -22.5t47 -8.5v-19q-68 4 -122 4q-46 0 -134 -4v19q57 4 73 12q13 6 13 23q0 27 -27 99l-35 94h-230l-25 -67 q-36 -95 -36 -120q0 -18 11 -25q18 -13 80 -16v-19zM214 275h209l-107 294zM402 742l-10 -14q-96 49 -161 94q-27 19 -27 37q0 13 9.5 21.5t21.5 8.5q17 0 38 -21q76 -76 129 -126z" />
<glyph unicode="&#xc1;" horiz-adv-x="671" d="M234 -2q-74 4 -118 4q-37 0 -111 -4v19q33 5 48 10t26 18q9 10 60 142l108 284q14 37 75 210h32q24 -77 68 -194l120 -321q34 -92 51 -118q12 -17 26 -22.5t47 -8.5v-19q-68 4 -122 4q-46 0 -134 -4v19q57 4 73 12q13 6 13 23q0 27 -27 99l-35 94h-230l-25 -67 q-36 -95 -36 -120q0 -18 11 -25q18 -13 80 -16v-19zM214 275h209l-107 294zM285 728l-10 13q77 74 128 127q21 21 39 21q12 0 21.5 -8.5t9.5 -21.5q0 -19 -28 -37q-62 -43 -160 -94z" />
<glyph unicode="&#xc2;" horiz-adv-x="671" d="M234 -2q-74 4 -118 4q-37 0 -111 -4v19q33 5 48 10t26 18q9 10 60 142l108 284q14 37 75 210h32q24 -77 68 -194l120 -321q34 -92 51 -118q12 -17 26 -22.5t47 -8.5v-19q-68 4 -122 4q-46 0 -134 -4v19q57 4 73 12q13 6 13 23q0 27 -27 99l-35 94h-230l-25 -67 q-36 -95 -36 -120q0 -18 11 -25q18 -13 80 -16v-19zM214 275h209l-107 294zM211 715l-13 13q9 11 51 59t65 76q10 13 26 13t25 -12q19 -25 57 -72t51 -64l-14 -13q-24 18 -122 97q-49 -40 -126 -97z" />
<glyph unicode="&#xc3;" horiz-adv-x="671" d="M234 -2q-74 4 -118 4q-37 0 -111 -4v19q33 5 48 10t26 18q9 10 60 142l108 284q14 37 75 210h32q24 -77 68 -194l120 -321q34 -92 51 -118q12 -17 26 -22.5t47 -8.5v-19q-68 4 -122 4q-46 0 -134 -4v19q57 4 73 12q13 6 13 23q0 27 -27 99l-35 94h-230l-25 -67 q-36 -95 -36 -120q0 -18 11 -25q18 -13 80 -16v-19zM214 275h209l-107 294zM215 748l-17 5q7 37 30 67.5t55 30.5q23 0 72 -27q41 -22 66 -22q27 0 45 51l18 -3q-11 -47 -28.5 -73.5t-49.5 -26.5q-25 0 -69 22q-50 26 -70 26q-32 0 -52 -50z" />
<glyph unicode="&#xc4;" horiz-adv-x="671" d="M234 -2q-74 4 -118 4q-37 0 -111 -4v19q33 5 48 10t26 18q9 10 60 142l108 284q14 37 75 210h32q24 -77 68 -194l120 -321q34 -92 51 -118q12 -17 26 -22.5t47 -8.5v-19q-68 4 -122 4q-46 0 -134 -4v19q57 4 73 12q13 6 13 23q0 27 -27 99l-35 94h-230l-25 -67 q-36 -95 -36 -120q0 -18 11 -25q18 -13 80 -16v-19zM214 275h209l-107 294zM297 798q0 -18 -12 -30t-29 -12q-15 0 -26.5 12t-11.5 30t11 29.5t28 11.5t28.5 -11.5t11.5 -29.5zM454 798q0 -18 -11.5 -30t-28.5 -12q-16 0 -27.5 12t-11.5 30t11.5 29.5t28.5 11.5 q16 0 27.5 -11.5t11.5 -29.5z" />
<glyph unicode="&#xc5;" horiz-adv-x="671" d="M234 -2q-74 4 -118 4q-37 0 -111 -4v19q33 5 48 10t26 18q9 10 60 142l108 284q14 37 75 210h32q24 -77 68 -194l120 -321q34 -92 51 -118q12 -17 26 -22.5t47 -8.5v-19q-68 4 -122 4q-46 0 -134 -4v19q57 4 73 12q13 6 13 23q0 27 -27 99l-35 94h-230l-25 -67 q-36 -95 -36 -120q0 -18 11 -25q18 -13 80 -16v-19zM214 275h209l-107 294zM420 800q0 -39 -23.5 -62t-60.5 -23q-39 0 -60.5 22.5t-21.5 59.5t23.5 61t59.5 24q39 0 61 -22t22 -60zM389 798q0 57 -53 57q-22 0 -36.5 -15.5t-14.5 -41.5q0 -24 14.5 -39.5t36.5 -15.5 q24 0 38.5 15t14.5 40z" />
<glyph unicode="&#xc6;" horiz-adv-x="979" d="M252 -2q-74 4 -132 4q-44 0 -118 -4v19q51 7 75 29q21 16 98 136l240 369q38 59 38 78q0 14 -20 19q-42 10 -79 13v19q96 -4 227 -4q24 0 127 1t149 1q26 0 35.5 -7.5t9.5 -27.5q0 -50 -9 -131h-20q-8 91 -32 111q-18 15 -47.5 19.5t-110.5 4.5q-44 0 -57 -2.5t-18 -10.5 q-7 -12 -7 -81v-185q122 0 152 18q13 8 18.5 22.5t13.5 55.5h20q-2 -52 -2 -107q0 -60 2 -114h-20q-11 63 -34 80q-14 11 -45 14t-105 3v-211q0 -62 10 -79q11 -18 91 -18q126 0 164 26q12 8 19 16.5t18 35t22 71.5h21q0 -73 -10 -136q-7 -45 -45 -45q-53 0 -175 1t-143 1 q-71 0 -144 -4v19q78 11 89 24q11 12 11 78v140h-257l-56 -87q-59 -90 -59 -120q0 -15 13 -21q32 -11 82 -14v-19zM529 289v326q0 22 -10 22q-7 0 -24 -26l-207 -322h241z" />
<glyph unicode="&#xc7;" horiz-adv-x="631" d="M255 -263l-2 20q100 16 100 75q0 28 -41 49q-26 13 -26 36q0 17 29 70q-135 10 -201 101.5t-66 232.5q0 174 85 271.5t237 97.5q111 0 170 -32q30 -17 30 -61q0 -41 -13 -113h-23q-6 88 -40 130q-37 47 -130 47q-111 0 -171.5 -80.5t-60.5 -235.5q0 -160 58 -241t160 -81 q93 0 139.5 41t76.5 118l23 -8q-20 -86 -81.5 -137t-159.5 -51h-8q-12 -26 -12 -37q0 -14 12 -21q40 -19 56 -38.5t16 -44.5q0 -36 -26 -61.5t-59.5 -35.5t-71.5 -11z" />
<glyph unicode="&#xc8;" horiz-adv-x="580" d="M549 181q0 -61 -12 -136q-7 -45 -50 -45q-53 0 -173 1t-140 1q-71 0 -144 -4v19q78 11 89 24q11 12 11 78v441q0 63 -11 74q-20 21 -89 27v19q73 -4 153 -4q24 0 128 1t150 1q26 0 37 -9t11 -30q0 -35 -15 -127h-19q-8 90 -33 111q-18 15 -47.5 19.5t-110.5 4.5 q-43 0 -56.5 -3t-18.5 -10q-7 -12 -7 -81v-181q122 0 152 18q13 8 18.5 22.5t13.5 55.5h21q-2 -52 -2 -107q0 -60 2 -114h-21q-11 63 -34 80q-14 11 -45 14t-105 3v-215q0 -62 10 -79q10 -18 91 -18q122 0 163 30q13 9 20 16t19 33t24 70h20zM349 742l-10 -14 q-96 49 -161 94q-27 19 -27 37q0 13 9.5 21.5t21.5 8.5q17 0 38 -21q76 -76 129 -126z" />
<glyph unicode="&#xc9;" horiz-adv-x="580" d="M549 181q0 -61 -12 -136q-7 -45 -50 -45q-53 0 -173 1t-140 1q-71 0 -144 -4v19q78 11 89 24q11 12 11 78v441q0 63 -11 74q-20 21 -89 27v19q73 -4 153 -4q24 0 128 1t150 1q26 0 37 -9t11 -30q0 -35 -15 -127h-19q-8 90 -33 111q-18 15 -47.5 19.5t-110.5 4.5 q-43 0 -56.5 -3t-18.5 -10q-7 -12 -7 -81v-181q122 0 152 18q13 8 18.5 22.5t13.5 55.5h21q-2 -52 -2 -107q0 -60 2 -114h-21q-11 63 -34 80q-14 11 -45 14t-105 3v-215q0 -62 10 -79q10 -18 91 -18q122 0 163 30q13 9 20 16t19 33t24 70h20zM260 728l-10 13q77 74 128 127 q21 21 39 21q12 0 21.5 -8.5t9.5 -21.5q0 -19 -28 -37q-62 -43 -160 -94z" />
<glyph unicode="&#xca;" horiz-adv-x="580" d="M549 181q0 -61 -12 -136q-7 -45 -50 -45q-53 0 -173 1t-140 1q-71 0 -144 -4v19q78 11 89 24q11 12 11 78v441q0 63 -11 74q-20 21 -89 27v19q73 -4 153 -4q24 0 128 1t150 1q26 0 37 -9t11 -30q0 -35 -15 -127h-19q-8 90 -33 111q-18 15 -47.5 19.5t-110.5 4.5 q-43 0 -56.5 -3t-18.5 -10q-7 -12 -7 -81v-181q122 0 152 18q13 8 18.5 22.5t13.5 55.5h21q-2 -52 -2 -107q0 -60 2 -114h-21q-11 63 -34 80q-14 11 -45 14t-105 3v-215q0 -62 10 -79q10 -18 91 -18q122 0 163 30q13 9 20 16t19 33t24 70h20zM171 715l-13 13q9 11 51 59 t65 76q10 13 26 13t25 -12q19 -25 57 -72t51 -64l-14 -13q-24 18 -122 97q-49 -40 -126 -97z" />
<glyph unicode="&#xcb;" horiz-adv-x="580" d="M549 181q0 -61 -12 -136q-7 -45 -50 -45q-53 0 -173 1t-140 1q-71 0 -144 -4v19q78 11 89 24q11 12 11 78v441q0 63 -11 74q-20 21 -89 27v19q73 -4 153 -4q24 0 128 1t150 1q26 0 37 -9t11 -30q0 -35 -15 -127h-19q-8 90 -33 111q-18 15 -47.5 19.5t-110.5 4.5 q-43 0 -56.5 -3t-18.5 -10q-7 -12 -7 -81v-181q122 0 152 18q13 8 18.5 22.5t13.5 55.5h21q-2 -52 -2 -107q0 -60 2 -114h-21q-11 63 -34 80q-14 11 -45 14t-105 3v-215q0 -62 10 -79q10 -18 91 -18q122 0 163 30q13 9 20 16t19 33t24 70h20zM256 798q0 -18 -12 -30t-29 -12 q-15 0 -26.5 12t-11.5 30t11 29.5t28 11.5t28.5 -11.5t11.5 -29.5zM413 798q0 -18 -11.5 -30t-28.5 -12q-16 0 -27.5 12t-11.5 30t11.5 29.5t28.5 11.5q16 0 27.5 -11.5t11.5 -29.5z" />
<glyph unicode="&#xcc;" horiz-adv-x="333" d="M302 -2q-72 4 -140 4q-59 0 -132 -4v19q77 10 89 24q11 12 11 78v441q0 58 -11 74q-16 21 -89 27v19q73 -4 132 -4q68 0 140 4v-19q-73 -6 -88 -25q-11 -16 -11 -77v-440q0 -65 8 -78q10 -16 91 -24v-19zM229 742l-10 -14q-96 49 -161 94q-27 19 -27 37q0 13 9.5 21.5 t21.5 8.5q17 0 38 -21q76 -76 129 -126z" />
<glyph unicode="&#xcd;" horiz-adv-x="333" d="M302 -2q-72 4 -140 4q-59 0 -132 -4v19q77 10 89 24q11 12 11 78v441q0 58 -11 74q-16 21 -89 27v19q73 -4 132 -4q68 0 140 4v-19q-73 -6 -88 -25q-11 -16 -11 -77v-440q0 -65 8 -78q10 -16 91 -24v-19zM114 728l-10 13q77 74 128 127q21 21 39 21q12 0 21.5 -8.5 t9.5 -21.5q0 -19 -28 -37q-62 -43 -160 -94z" />
<glyph unicode="&#xce;" horiz-adv-x="333" d="M302 -2q-72 4 -140 4q-59 0 -132 -4v19q77 10 89 24q11 12 11 78v441q0 58 -11 74q-16 21 -89 27v19q73 -4 132 -4q68 0 140 4v-19q-73 -6 -88 -25q-11 -16 -11 -77v-440q0 -65 8 -78q10 -16 91 -24v-19zM40 715l-13 13q9 11 51 59t65 76q10 13 26 13t25 -12 q19 -25 57 -72t51 -64l-14 -13q-24 18 -122 97q-49 -40 -126 -97z" />
<glyph unicode="&#xcf;" horiz-adv-x="333" d="M302 -2q-72 4 -140 4q-59 0 -132 -4v19q77 10 89 24q11 12 11 78v441q0 58 -11 74q-16 21 -89 27v19q73 -4 132 -4q68 0 140 4v-19q-73 -6 -88 -25q-11 -16 -11 -77v-440q0 -65 8 -78q10 -16 91 -24v-19zM126 798q0 -18 -12 -30t-29 -12q-15 0 -26.5 12t-11.5 30t11 29.5 t28 11.5t28.5 -11.5t11.5 -29.5zM283 798q0 -18 -11.5 -30t-28.5 -12q-16 0 -27.5 12t-11.5 30t11.5 29.5t28.5 11.5q16 0 27.5 -11.5t11.5 -29.5z" />
<glyph unicode="&#xd0;" horiz-adv-x="697" d="M30 -2v19q78 11 89 24q11 12 11 78v222h-103v35h103v184q0 58 -11 74q-16 21 -89 27v19q73 -4 130 -4q13 0 62.5 1.5t65.5 1.5q192 0 277.5 -76.5t85.5 -243.5q0 -174 -90 -267t-267 -93q-15 0 -62.5 1t-76.5 1q-70 0 -125 -3zM202 124q0 -56 13 -72q13 -19 84 -19 q68 0 118 19t78.5 47.5t45 73.5t21.5 86t5 95q0 152 -64 223t-220 71q-60 0 -71 -11q-10 -10 -10 -84v-177h206v-35h-206v-217z" />
<glyph unicode="&#xd1;" horiz-adv-x="747" d="M274 -2q-72 4 -128 4q-46 0 -119 -4v19q79 11 90 24q11 12 12 78q1 40 4 440q0 58 -11 75q-16 21 -90 27v19q39 -4 87 -4q4 0 25 1t24 1q17 0 23 -4t15 -18q50 -71 192.5 -266.5t183.5 -256.5q-2 62 -6 426q0 67 -8 78q-4 6 -8.5 9t-25 7t-59.5 8v19q72 -4 126 -4 q48 0 121 4v-19q-79 -11 -90 -24q-11 -12 -11 -78q0 -80 -1 -277t-1 -296h-20q-122 170 -222.5 309.5t-147.5 203.5t-60 83q4 -199 4 -463q0 -68 7 -78q4 -6 8.5 -9t25.5 -7t60 -8v-19zM252 748l-17 5q7 37 30 67.5t55 30.5q23 0 72 -27q41 -22 66 -22q27 0 45 51l18 -3 q-11 -47 -28.5 -73.5t-49.5 -26.5q-25 0 -69 22q-50 26 -70 26q-32 0 -52 -50z" />
<glyph unicode="&#xd2;" horiz-adv-x="685" d="M637 356q0 -163 -75.5 -266.5t-218.5 -103.5q-141 0 -218 97.5t-77 248.5q0 160 79 259.5t221 99.5q136 0 212.5 -95t76.5 -240zM552 353q0 150 -55.5 229t-149.5 79q-103 0 -159 -83t-56 -244q0 -156 58.5 -237t154.5 -81q104 0 155.5 81t51.5 256zM424 742l-10 -14 q-96 49 -161 94q-27 19 -27 37q0 13 9.5 21.5t21.5 8.5q17 0 38 -21q76 -76 129 -126z" />
<glyph unicode="&#xd3;" horiz-adv-x="685" d="M637 356q0 -163 -75.5 -266.5t-218.5 -103.5q-141 0 -218 97.5t-77 248.5q0 160 79 259.5t221 99.5q136 0 212.5 -95t76.5 -240zM552 353q0 150 -55.5 229t-149.5 79q-103 0 -159 -83t-56 -244q0 -156 58.5 -237t154.5 -81q104 0 155.5 81t51.5 256zM296 728l-10 13 q77 74 128 127q21 21 39 21q12 0 21.5 -8.5t9.5 -21.5q0 -19 -28 -37q-62 -43 -160 -94z" />
<glyph unicode="&#xd4;" horiz-adv-x="685" d="M637 356q0 -163 -75.5 -266.5t-218.5 -103.5q-141 0 -218 97.5t-77 248.5q0 160 79 259.5t221 99.5q136 0 212.5 -95t76.5 -240zM552 353q0 150 -55.5 229t-149.5 79q-103 0 -159 -83t-56 -244q0 -156 58.5 -237t154.5 -81q104 0 155.5 81t51.5 256zM222 715l-13 13 q9 11 51 59t65 76q10 13 26 13t25 -12q19 -25 57 -72t51 -64l-14 -13q-24 18 -122 97q-49 -40 -126 -97z" />
<glyph unicode="&#xd5;" horiz-adv-x="685" d="M637 356q0 -163 -75.5 -266.5t-218.5 -103.5q-141 0 -218 97.5t-77 248.5q0 160 79 259.5t221 99.5q136 0 212.5 -95t76.5 -240zM552 353q0 150 -55.5 229t-149.5 79q-103 0 -159 -83t-56 -244q0 -156 58.5 -237t154.5 -81q104 0 155.5 81t51.5 256zM214 748l-17 5 q7 37 30 67.5t55 30.5q23 0 72 -27q41 -22 66 -22q27 0 45 51l18 -3q-11 -47 -28.5 -73.5t-49.5 -26.5q-25 0 -69 22q-50 26 -70 26q-32 0 -52 -50z" />
<glyph unicode="&#xd6;" horiz-adv-x="685" d="M637 356q0 -163 -75.5 -266.5t-218.5 -103.5q-141 0 -218 97.5t-77 248.5q0 160 79 259.5t221 99.5q136 0 212.5 -95t76.5 -240zM552 353q0 150 -55.5 229t-149.5 79q-103 0 -159 -83t-56 -244q0 -156 58.5 -237t154.5 -81q104 0 155.5 81t51.5 256zM304 798 q0 -18 -12 -30t-29 -12q-15 0 -26.5 12t-11.5 30t11 29.5t28 11.5t28.5 -11.5t11.5 -29.5zM461 798q0 -18 -11.5 -30t-28.5 -12q-16 0 -27.5 12t-11.5 30t11.5 29.5t28.5 11.5q16 0 27.5 -11.5t11.5 -29.5z" />
<glyph unicode="&#xd7;" horiz-adv-x="600" d="M139 98l-34 35l160 162l-162 160l37 38l161 -160l159 161l33 -35l-158 -161l163 -161l-36 -38l-163 161z" />
<glyph unicode="&#xd8;" horiz-adv-x="685" d="M106 -44l-29 20l60 94q-89 95 -89 259q0 160 77.5 261t218.5 101q93 0 162 -48l55 86l30 -18l-58 -90q98 -93 98 -263q0 -105 -31 -187.5t-97.5 -133.5t-161.5 -51q-103 0 -178 59zM545 355q0 136 -45 214l-308 -479q55 -74 148 -74q104 0 154.5 81.5t50.5 257.5z M132 331q0 -130 40 -208l306 477q-51 61 -134 61q-103 0 -157.5 -84t-54.5 -246z" />
<glyph unicode="&#xd9;" horiz-adv-x="731" d="M614 559q0 -45 0.5 -137t0.5 -142q0 -102 -18 -160q-21 -64 -79 -98.5t-142 -34.5q-157 0 -216 81q-42 57 -42 208v284q0 58 -11 74q-16 22 -81 27v19q73 -4 127 -4q69 0 141 4v-19q-76 -7 -91 -25q-12 -14 -12 -77v-298q0 -100 21 -145q41 -90 170 -90q137 0 172 94 q20 54 20 158q0 142 -4 259q-3 85 -14 98q-15 19 -96 26v19q72 -4 132 -4q43 0 116 4v-19q-34 -5 -50.5 -8.5t-22 -6.5t-10.5 -9q-11 -12 -11 -78zM445 742l-10 -14q-96 49 -161 94q-27 19 -27 37q0 13 9.5 21.5t21.5 8.5q17 0 38 -21q76 -76 129 -126z" />
<glyph unicode="&#xda;" horiz-adv-x="731" d="M614 559q0 -45 0.5 -137t0.5 -142q0 -102 -18 -160q-21 -64 -79 -98.5t-142 -34.5q-157 0 -216 81q-42 57 -42 208v284q0 58 -11 74q-16 22 -81 27v19q73 -4 127 -4q69 0 141 4v-19q-76 -7 -91 -25q-12 -14 -12 -77v-298q0 -100 21 -145q41 -90 170 -90q137 0 172 94 q20 54 20 158q0 142 -4 259q-3 85 -14 98q-15 19 -96 26v19q72 -4 132 -4q43 0 116 4v-19q-34 -5 -50.5 -8.5t-22 -6.5t-10.5 -9q-11 -12 -11 -78zM324 728l-10 13q77 74 128 127q21 21 39 21q12 0 21.5 -8.5t9.5 -21.5q0 -19 -28 -37q-62 -43 -160 -94z" />
<glyph unicode="&#xdb;" horiz-adv-x="731" d="M614 559q0 -45 0.5 -137t0.5 -142q0 -102 -18 -160q-21 -64 -79 -98.5t-142 -34.5q-157 0 -216 81q-42 57 -42 208v284q0 58 -11 74q-16 22 -81 27v19q73 -4 127 -4q69 0 141 4v-19q-76 -7 -91 -25q-12 -14 -12 -77v-298q0 -100 21 -145q41 -90 170 -90q137 0 172 94 q20 54 20 158q0 142 -4 259q-3 85 -14 98q-15 19 -96 26v19q72 -4 132 -4q43 0 116 4v-19q-34 -5 -50.5 -8.5t-22 -6.5t-10.5 -9q-11 -12 -11 -78zM246 715l-13 13q9 11 51 59t65 76q10 13 26 13t25 -12q19 -25 57 -72t51 -64l-14 -13q-24 18 -122 97q-49 -40 -126 -97z" />
<glyph unicode="&#xdc;" horiz-adv-x="731" d="M614 559q0 -45 0.5 -137t0.5 -142q0 -102 -18 -160q-21 -64 -79 -98.5t-142 -34.5q-157 0 -216 81q-42 57 -42 208v284q0 58 -11 74q-16 22 -81 27v19q73 -4 127 -4q69 0 141 4v-19q-76 -7 -91 -25q-12 -14 -12 -77v-298q0 -100 21 -145q41 -90 170 -90q137 0 172 94 q20 54 20 158q0 142 -4 259q-3 85 -14 98q-15 19 -96 26v19q72 -4 132 -4q43 0 116 4v-19q-34 -5 -50.5 -8.5t-22 -6.5t-10.5 -9q-11 -12 -11 -78zM345 798q0 -18 -12 -30t-29 -12q-15 0 -26.5 12t-11.5 30t11 29.5t28 11.5t28.5 -11.5t11.5 -29.5zM502 798q0 -18 -11.5 -30 t-28.5 -12q-16 0 -27.5 12t-11.5 30t11.5 29.5t28.5 11.5q16 0 27.5 -11.5t11.5 -29.5z" />
<glyph unicode="&#xdd;" horiz-adv-x="677" d="M470 -2q-72 4 -141 4q-59 0 -132 -4v19q77 10 89 24q11 12 11 78v165q-31 53 -159 259q-57 91 -71 100q-25 17 -63 18v19q75 -4 129 -4q74 0 130 4v-19q-38 -4 -54 -8t-22 -9t-6 -15q0 -20 49 -101q77 -127 121 -194q55 83 116 182q52 88 52 112q0 16 -29 23 q-28 7 -57 10v18q48 -3 124 -3q82 0 116 3v-18q-46 -4 -65 -21q-27 -27 -77 -104q-29 -44 -82 -123t-79 -120v-174q0 -65 8 -78q10 -16 92 -24v-19zM321 728l-10 13q77 74 128 127q21 21 39 21q12 0 21.5 -8.5t9.5 -21.5q0 -19 -28 -37q-62 -43 -160 -94z" />
<glyph unicode="&#xde;" horiz-adv-x="582" d="M315 -2q-72 4 -149 4q-63 0 -136 -4v19q77 10 89 24q11 12 11 78v441q0 58 -11 74q-16 21 -89 27v19q73 -4 132 -4q68 0 140 4v-19q-79 -6 -91 -25q-9 -14 -9 -100q43 3 91 3q131 0 189.5 -41.5t58.5 -136.5q0 -195 -270 -195q-38 0 -69 1v-48q0 -64 12 -79 q11 -14 101 -23v-19zM202 199q27 -2 67 -2q96 0 144 38.5t48 123.5q0 78 -43.5 114.5t-141.5 36.5q-54 0 -65 -11q-9 -9 -9 -83v-217z" />
<glyph unicode="&#xdf;" horiz-adv-x="550" d="M185 -2q-37 3 -77 3q-42 0 -70 -3v18q59 7 71 21q9 10 9 94v289h-81v20q54 9 70 21q10 9 12 38q7 95 38 140q51 75 157 75q67 0 108 -31t41 -89q0 -50 -26 -86t-77 -76q-51 -38 -51 -66q0 -24 35 -49q50 -35 108 -79t58 -105q0 -65 -43.5 -105t-118.5 -40q-81 0 -106 27 q-11 11 -11 31q0 13 11 64h13q7 -51 31 -73t67 -22q48 0 73.5 27.5t25.5 64.5q0 44 -45 83q-38 31 -99 74q-53 39 -53 85q0 25 15 44.5t57 57.5q76 67 76 145q0 45 -25.5 67.5t-64.5 22.5q-42 0 -72 -22.5t-44 -61.5q-16 -44 -16 -110q0 -459 4 -494z" />
<glyph unicode="&#xe0;" horiz-adv-x="482" d="M482 28q-45 -36 -95 -36q-30 0 -44.5 15.5t-14.5 52.5q0 15 1 22l-6 1q-16 -43 -54 -69t-88 -26q-63 0 -100 37t-37 96q0 83 89 112q54 18 126 18q45 0 61 -1v30q0 83 -11 112q-17 45 -84 45t-89 -30q-20 -26 -26 -98h-17q-18 54 -18 86q0 29 26 45q48 28 138 28 q73 0 108 -26.5t35 -95.5q0 -35 -0.5 -124.5t-0.5 -102.5q0 -53 12 -70.5t37 -17.5q19 0 46 10zM320 223q-12 1 -52 1q-68 0 -107 -19q-49 -23 -49 -80q0 -47 23.5 -72.5t66.5 -25.5q34 0 63.5 20t42.5 55q12 33 12 71v50zM286 536l-13 -9q-95 80 -130 120q-19 19 -19 37 q0 13 9.5 20.5t21.5 7.5q21 0 39 -31q35 -60 92 -145z" />
<glyph unicode="&#xe1;" horiz-adv-x="482" d="M482 28q-45 -36 -95 -36q-30 0 -44.5 15.5t-14.5 52.5q0 15 1 22l-6 1q-16 -43 -54 -69t-88 -26q-63 0 -100 37t-37 96q0 83 89 112q54 18 126 18q45 0 61 -1v30q0 83 -11 112q-17 45 -84 45t-89 -30q-20 -26 -26 -98h-17q-18 54 -18 86q0 29 26 45q48 28 138 28 q73 0 108 -26.5t35 -95.5q0 -35 -0.5 -124.5t-0.5 -102.5q0 -53 12 -70.5t37 -17.5q19 0 46 10zM320 223q-12 1 -52 1q-68 0 -107 -19q-49 -23 -49 -80q0 -47 23.5 -72.5t66.5 -25.5q34 0 63.5 20t42.5 55q12 33 12 71v50zM198 527l-14 9q48 71 92 145q18 31 39 31 q12 0 21.5 -7.5t9.5 -20.5q0 -18 -18 -37q-40 -44 -130 -120z" />
<glyph unicode="&#xe2;" horiz-adv-x="482" d="M482 28q-45 -36 -95 -36q-30 0 -44.5 15.5t-14.5 52.5q0 15 1 22l-6 1q-16 -43 -54 -69t-88 -26q-63 0 -100 37t-37 96q0 83 89 112q54 18 126 18q45 0 61 -1v30q0 83 -11 112q-17 45 -84 45t-89 -30q-20 -26 -26 -98h-17q-18 54 -18 86q0 29 26 45q48 28 138 28 q73 0 108 -26.5t35 -95.5q0 -35 -0.5 -124.5t-0.5 -102.5q0 -53 12 -70.5t37 -17.5q19 0 46 10zM320 223q-12 1 -52 1q-68 0 -107 -19q-49 -23 -49 -80q0 -47 23.5 -72.5t66.5 -25.5q34 0 63.5 20t42.5 55q12 33 12 71v50zM118 523l-15 10q26 40 103 169q7 13 24 13 q16 0 23 -12q12 -20 34 -58t38 -66t26 -46l-15 -10q-38 40 -108 120q-64 -72 -110 -120z" />
<glyph unicode="&#xe3;" horiz-adv-x="482" d="M482 28q-45 -36 -95 -36q-30 0 -44.5 15.5t-14.5 52.5q0 15 1 22l-6 1q-16 -43 -54 -69t-88 -26q-63 0 -100 37t-37 96q0 83 89 112q54 18 126 18q45 0 61 -1v30q0 83 -11 112q-17 45 -84 45t-89 -30q-20 -26 -26 -98h-17q-18 54 -18 86q0 29 26 45q48 28 138 28 q73 0 108 -26.5t35 -95.5q0 -35 -0.5 -124.5t-0.5 -102.5q0 -53 12 -70.5t37 -17.5q19 0 46 10zM320 223q-12 1 -52 1q-68 0 -107 -19q-49 -23 -49 -80q0 -47 23.5 -72.5t66.5 -25.5q34 0 63.5 20t42.5 55q12 33 12 71v50zM118 549l-17 4q7 38 28.5 68.5t53.5 30.5 q19 0 70 -27q40 -22 61 -22q27 0 45 51l18 -3q-11 -48 -27 -74t-48 -26q-23 0 -67 22q-50 26 -65 26q-31 0 -52 -50z" />
<glyph unicode="&#xe4;" horiz-adv-x="482" d="M482 28q-45 -36 -95 -36q-30 0 -44.5 15.5t-14.5 52.5q0 15 1 22l-6 1q-16 -43 -54 -69t-88 -26q-63 0 -100 37t-37 96q0 83 89 112q54 18 126 18q45 0 61 -1v30q0 83 -11 112q-17 45 -84 45t-89 -30q-20 -26 -26 -98h-17q-18 54 -18 86q0 29 26 45q48 28 138 28 q73 0 108 -26.5t35 -95.5q0 -35 -0.5 -124.5t-0.5 -102.5q0 -53 12 -70.5t37 -17.5q19 0 46 10zM320 223q-12 1 -52 1q-68 0 -107 -19q-49 -23 -49 -80q0 -47 23.5 -72.5t66.5 -25.5q34 0 63.5 20t42.5 55q12 33 12 71v50zM199 607q0 -18 -12 -29.5t-29 -11.5 q-16 0 -27 11.5t-11 29.5t11 29.5t28 11.5t28.5 -11.5t11.5 -29.5zM346 607q0 -18 -11.5 -29.5t-28.5 -11.5q-16 0 -27.5 11.5t-11.5 29.5t11.5 29.5t28.5 11.5q16 0 27.5 -11.5t11.5 -29.5z" />
<glyph unicode="&#xe5;" horiz-adv-x="482" d="M482 28q-45 -36 -95 -36q-30 0 -44.5 15.5t-14.5 52.5q0 15 1 22l-6 1q-16 -43 -54 -69t-88 -26q-63 0 -100 37t-37 96q0 83 89 112q54 18 126 18q45 0 61 -1v30q0 83 -11 112q-17 45 -84 45t-89 -30q-20 -26 -26 -98h-17q-18 54 -18 86q0 29 26 45q48 28 138 28 q73 0 108 -26.5t35 -95.5q0 -35 -0.5 -124.5t-0.5 -102.5q0 -53 12 -70.5t37 -17.5q19 0 46 10zM320 223q-12 1 -52 1q-68 0 -107 -19q-49 -23 -49 -80q0 -47 23.5 -72.5t66.5 -25.5q34 0 63.5 20t42.5 55q12 33 12 71v50zM324 608q0 -42 -25 -67t-65 -25q-42 0 -65.5 24.5 t-23.5 63.5q0 40 25.5 65.5t64.5 25.5q42 0 65.5 -23t23.5 -64zM292 605q0 30 -15.5 46.5t-42.5 16.5q-25 0 -40.5 -17t-15.5 -46q0 -27 15.5 -44t40.5 -17q26 0 42 16.5t16 44.5z" />
<glyph unicode="&#xe6;" horiz-adv-x="721" d="M697 122q-21 -61 -68.5 -98t-113.5 -37t-112 27t-65 76q-45 -102 -154 -102q-65 0 -103.5 36.5t-38.5 100.5q0 86 89 118q53 19 150 19h36v18q0 83 -11 112q-16 45 -85 45q-65 0 -87 -30q-20 -26 -26 -100h-17q-19 54 -19 88q0 29 27 45q48 28 136 28q56 0 88.5 -17.5 t42.5 -60.5q51 76 153 76q171 0 171 -194q0 -19 -10 -27.5t-37 -8.5h-264v-18q0 -101 41.5 -146t103.5 -45q108 0 151 103zM317 236h-21q-100 0 -137 -21q-49 -28 -49 -86q0 -49 24 -75.5t68 -26.5q34 0 63.5 20t41.5 54q10 30 10 68v67zM381 263h115q107 0 117 9q8 7 8 36 q0 69 -25 100.5t-81 31.5q-53 0 -92 -43t-42 -134z" />
<glyph unicode="&#xe7;" horiz-adv-x="453" d="M160 -257l-2 20q50 8 73 25.5t23 47.5q0 28 -39 48q-25 14 -25 35q0 19 28 70q-84 9 -130 70.5t-46 154.5q0 117 63 184.5t164 67.5q84 0 121 -23q21 -13 21 -44q0 -38 -13 -94h-21q-3 70 -31 101q-26 32 -83 32q-68 0 -108.5 -52.5t-40.5 -155.5q0 -104 41.5 -153.5 t103.5 -49.5q103 0 147 103l22 -7q-17 -60 -64.5 -98t-116.5 -38h-5q-12 -25 -12 -37q0 -13 12 -20q69 -34 69 -81q0 -51 -46 -77.5t-105 -28.5z" />
<glyph unicode="&#xe8;" horiz-adv-x="468" d="M435 122q-22 -61 -69.5 -98t-112.5 -37q-100 0 -155.5 62t-55.5 167q0 115 58 182.5t156 67.5q84 0 127.5 -47t43.5 -133q0 -19 -10 -27t-37 -8h-266v-20q0 -108 42.5 -156t104.5 -48q51 0 91 26t61 77zM116 278h117q107 0 117 9q9 7 9 34q0 119 -106 119 q-53 0 -93.5 -40.5t-43.5 -121.5zM299 536l-13 -9q-95 80 -130 120q-19 19 -19 37q0 13 9.5 20.5t21.5 7.5q21 0 39 -31q35 -60 92 -145z" />
<glyph unicode="&#xe9;" horiz-adv-x="468" d="M435 122q-22 -61 -69.5 -98t-112.5 -37q-100 0 -155.5 62t-55.5 167q0 115 58 182.5t156 67.5q84 0 127.5 -47t43.5 -133q0 -19 -10 -27t-37 -8h-266v-20q0 -108 42.5 -156t104.5 -48q51 0 91 26t61 77zM116 278h117q107 0 117 9q9 7 9 34q0 119 -106 119 q-53 0 -93.5 -40.5t-43.5 -121.5zM215 527l-14 9q48 71 92 145q18 31 39 31q12 0 21.5 -7.5t9.5 -20.5q0 -18 -18 -37q-40 -44 -130 -120z" />
<glyph unicode="&#xea;" horiz-adv-x="468" d="M435 122q-22 -61 -69.5 -98t-112.5 -37q-100 0 -155.5 62t-55.5 167q0 115 58 182.5t156 67.5q84 0 127.5 -47t43.5 -133q0 -19 -10 -27t-37 -8h-266v-20q0 -108 42.5 -156t104.5 -48q51 0 91 26t61 77zM116 278h117q107 0 117 9q9 7 9 34q0 119 -106 119 q-53 0 -93.5 -40.5t-43.5 -121.5zM143 523l-15 10q26 40 103 169q7 13 24 13q16 0 23 -12q12 -20 34 -58t38 -66t26 -46l-15 -10q-38 40 -108 120q-64 -72 -110 -120z" />
<glyph unicode="&#xeb;" horiz-adv-x="468" d="M435 122q-22 -61 -69.5 -98t-112.5 -37q-100 0 -155.5 62t-55.5 167q0 115 58 182.5t156 67.5q84 0 127.5 -47t43.5 -133q0 -19 -10 -27t-37 -8h-266v-20q0 -108 42.5 -156t104.5 -48q51 0 91 26t61 77zM116 278h117q107 0 117 9q9 7 9 34q0 119 -106 119 q-53 0 -93.5 -40.5t-43.5 -121.5zM219 607q0 -18 -12 -29.5t-29 -11.5q-16 0 -27 11.5t-11 29.5t11 29.5t28 11.5t28.5 -11.5t11.5 -29.5zM366 607q0 -18 -11.5 -29.5t-28.5 -11.5q-16 0 -27.5 11.5t-11.5 29.5t11.5 29.5t28.5 11.5q16 0 27.5 -11.5t11.5 -29.5z" />
<glyph unicode="&#xec;" horiz-adv-x="291" d="M189 536l-13 -9q-95 80 -130 120q-19 19 -19 37q0 13 9.5 20.5t21.5 7.5q21 0 39 -31q35 -60 92 -145zM267 -2q-61 4 -120 4q-44 0 -109 -4v18q61 5 71 20q10 16 10 84v148q0 112 -16 140q-10 16 -31 16q-5 0 -35 -4l-4 14q60 30 110 30q22 0 32 -10t10 -49 q0 -10 -1.5 -70t-1.5 -80v-134q0 -72 8 -85q9 -15 77 -20v-18z" />
<glyph unicode="&#xed;" horiz-adv-x="291" d="M79 527l-14 9q48 71 92 145q18 31 39 31q12 0 21.5 -7.5t9.5 -20.5q0 -18 -18 -37q-40 -44 -130 -120zM267 -2q-61 4 -120 4q-44 0 -109 -4v18q61 5 71 20q10 16 10 84v148q0 112 -16 140q-10 16 -31 16q-5 0 -35 -4l-4 14q60 30 110 30q22 0 32 -10t10 -49 q0 -10 -1.5 -70t-1.5 -80v-134q0 -72 8 -85q9 -15 77 -20v-18z" />
<glyph unicode="&#xee;" horiz-adv-x="291" d="M267 -2q-61 4 -120 4q-44 0 -109 -4v18q61 5 71 20q10 16 10 84v148q0 112 -16 140q-10 16 -31 16q-5 0 -35 -4l-4 14q60 30 110 30q22 0 32 -10t10 -49q0 -10 -1.5 -70t-1.5 -80v-134q0 -72 8 -85q9 -15 77 -20v-18zM28 523l-15 10q26 40 103 169q7 13 24 13 q16 0 23 -12q12 -20 34 -58t38 -66t26 -46l-15 -10q-38 40 -108 120q-64 -72 -110 -120z" />
<glyph unicode="&#xef;" horiz-adv-x="291" d="M100 607q0 -18 -12 -29.5t-29 -11.5q-16 0 -27 11.5t-11 29.5t11 29.5t28 11.5t28.5 -11.5t11.5 -29.5zM247 607q0 -18 -11.5 -29.5t-28.5 -11.5q-16 0 -27.5 11.5t-11.5 29.5t11.5 29.5t28.5 11.5q16 0 27.5 -11.5t11.5 -29.5zM267 -2q-61 4 -120 4q-44 0 -109 -4v18 q61 5 71 20q10 16 10 84v148q0 112 -16 140q-10 16 -31 16q-5 0 -35 -4l-4 14q60 30 110 30q22 0 32 -10t10 -49q0 -10 -1.5 -70t-1.5 -80v-134q0 -72 8 -85q9 -15 77 -20v-18z" />
<glyph unicode="&#xf0;" horiz-adv-x="516" d="M430 653l-89 -44q133 -126 133 -367q0 -50 -12.5 -94t-37.5 -80.5t-69 -58t-102 -21.5q-99 0 -155 66.5t-56 170.5q0 105 58.5 172.5t164.5 67.5q73 0 112 -45q-22 92 -87 164l-125 -61l-14 29l115 56q-67 62 -165 97l8 19q126 -29 206 -92l102 49zM401 226 q0 105 -39.5 159t-101.5 54q-65 0 -104.5 -51.5t-39.5 -154.5q0 -109 40.5 -163.5t103.5 -54.5q141 0 141 211z" />
<glyph unicode="&#xf1;" horiz-adv-x="577" d="M574 29q-51 -37 -98 -37q-34 0 -49 14q-23 20 -23 83v198q0 71 -9 95q-18 47 -71 47q-33 0 -66 -23t-51 -61q-25 -52 -25 -119v-101q0 -76 9 -89q10 -15 79 -20v-18q-64 4 -123 4q-44 0 -109 -4v18q62 7 71 20q10 14 10 88v144q0 111 -16 140q-10 16 -31 16q-5 0 -35 -4 l-4 14q58 30 105 30q23 0 32 -10q9 -9 9 -42q0 -26 -6 -68l6 -1q23 60 70 92t103 32q96 0 110 -72q5 -25 5 -112v-137q0 -64 8 -86q10 -30 40 -30q25 0 52 11zM167 549l-17 4q7 38 28.5 68.5t53.5 30.5q19 0 70 -27q40 -22 61 -22q27 0 45 51l18 -3q-11 -48 -27 -74t-48 -26 q-23 0 -67 22q-50 26 -65 26q-31 0 -52 -50z" />
<glyph unicode="&#xf2;" horiz-adv-x="516" d="M474 241q0 -107 -55 -180t-166 -73q-99 0 -155 66.5t-56 170.5q0 105 59.5 173t166.5 68q98 0 152 -62t54 -163zM401 226q0 105 -39.5 159.5t-101.5 54.5q-64 0 -104 -52t-40 -155q0 -109 40.5 -163.5t103.5 -54.5q141 0 141 211zM321 536l-13 -9q-95 80 -130 120 q-19 19 -19 37q0 13 9.5 20.5t21.5 7.5q21 0 39 -31q35 -60 92 -145z" />
<glyph unicode="&#xf3;" horiz-adv-x="516" d="M474 241q0 -107 -55 -180t-166 -73q-99 0 -155 66.5t-56 170.5q0 105 59.5 173t166.5 68q98 0 152 -62t54 -163zM401 226q0 105 -39.5 159.5t-101.5 54.5q-64 0 -104 -52t-40 -155q0 -109 40.5 -163.5t103.5 -54.5q141 0 141 211zM221 527l-14 9q48 71 92 145 q18 31 39 31q12 0 21.5 -7.5t9.5 -20.5q0 -18 -18 -37q-40 -44 -130 -120z" />
<glyph unicode="&#xf4;" horiz-adv-x="516" d="M474 241q0 -107 -55 -180t-166 -73q-99 0 -155 66.5t-56 170.5q0 105 59.5 173t166.5 68q98 0 152 -62t54 -163zM401 226q0 105 -39.5 159.5t-101.5 54.5q-64 0 -104 -52t-40 -155q0 -109 40.5 -163.5t103.5 -54.5q141 0 141 211zM153 523l-15 10q26 40 103 169 q7 13 24 13q16 0 23 -12q12 -20 34 -58t38 -66t26 -46l-15 -10q-38 40 -108 120q-64 -72 -110 -120z" />
<glyph unicode="&#xf5;" horiz-adv-x="516" d="M474 241q0 -107 -55 -180t-166 -73q-99 0 -155 66.5t-56 170.5q0 105 59.5 173t166.5 68q98 0 152 -62t54 -163zM401 226q0 105 -39.5 159.5t-101.5 54.5q-64 0 -104 -52t-40 -155q0 -109 40.5 -163.5t103.5 -54.5q141 0 141 211zM137 549l-17 4q7 38 28.5 68.5 t53.5 30.5q19 0 70 -27q40 -22 61 -22q27 0 45 51l18 -3q-11 -48 -27 -74t-48 -26q-23 0 -67 22q-50 26 -65 26q-31 0 -52 -50z" />
<glyph unicode="&#xf6;" horiz-adv-x="516" d="M474 241q0 -107 -55 -180t-166 -73q-99 0 -155 66.5t-56 170.5q0 105 59.5 173t166.5 68q98 0 152 -62t54 -163zM401 226q0 105 -39.5 159.5t-101.5 54.5q-64 0 -104 -52t-40 -155q0 -109 40.5 -163.5t103.5 -54.5q141 0 141 211zM225 607q0 -18 -12 -29.5t-29 -11.5 q-16 0 -27 11.5t-11 29.5t11 29.5t28 11.5t28.5 -11.5t11.5 -29.5zM372 607q0 -18 -11.5 -29.5t-28.5 -11.5q-16 0 -27.5 11.5t-11.5 29.5t11.5 29.5t28.5 11.5q16 0 27.5 -11.5t11.5 -29.5z" />
<glyph unicode="&#xf7;" horiz-adv-x="600" d="M338 438q0 -16 -11.5 -28t-27.5 -12q-17 0 -28 12t-11 29q0 16 11.5 28t27.5 12t27.5 -12t11.5 -29zM523 269h-446v49h446v-49zM338 148q0 -16 -11.5 -28t-27.5 -12q-17 0 -28 12t-11 29q0 16 11.5 28t27.5 12t27.5 -12t11.5 -29z" />
<glyph unicode="&#xf8;" horiz-adv-x="516" d="M97 -53l-28 18l45 72q-72 66 -72 188q0 105 59.5 173t166.5 68q58 0 101 -23l47 75l31 -17l-49 -77q76 -59 76 -183q0 -107 -55 -180t-166 -73q-62 0 -112 29zM401 226q0 91 -33 149l-202 -319q37 -41 94 -41q141 0 141 211zM116 233q0 -90 29 -146l200 318 q-37 35 -85 35q-64 0 -104 -52t-40 -155z" />
<glyph unicode="&#xf9;" horiz-adv-x="576" d="M565 29q-46 -37 -96 -37q-32 0 -48.5 14t-16.5 56q0 14 2 36l-6 1q-50 -111 -169 -111q-65 0 -93 34t-29 105q0 8 1 57.5t1 96.5q0 111 -12 128q-12 15 -31 15q-6 0 -34 -4l-4 14q58 30 107 30q21 0 31 -10q11 -12 11 -44q0 -13 -2.5 -80.5t-2.5 -120.5q0 -106 8 -131 q16 -52 75 -52q33 0 65.5 19t49.5 52q25 45 25 119v73q0 96 -15 120q-9 15 -31 15q-13 0 -41 -4l-4 14q58 30 115 30q22 0 31 -11q11 -12 11 -43q0 -16 -1 -68t-1 -58v-161q0 -94 53 -94q12 0 45 12zM324 536l-13 -9q-95 80 -130 120q-19 19 -19 37q0 13 9.5 20.5t21.5 7.5 q21 0 39 -31q35 -60 92 -145z" />
<glyph unicode="&#xfa;" horiz-adv-x="576" d="M565 29q-46 -37 -96 -37q-32 0 -48.5 14t-16.5 56q0 14 2 36l-6 1q-50 -111 -169 -111q-65 0 -93 34t-29 105q0 8 1 57.5t1 96.5q0 111 -12 128q-12 15 -31 15q-6 0 -34 -4l-4 14q58 30 107 30q21 0 31 -10q11 -12 11 -44q0 -13 -2.5 -80.5t-2.5 -120.5q0 -106 8 -131 q16 -52 75 -52q33 0 65.5 19t49.5 52q25 45 25 119v73q0 96 -15 120q-9 15 -31 15q-13 0 -41 -4l-4 14q58 30 115 30q22 0 31 -11q11 -12 11 -43q0 -16 -1 -68t-1 -58v-161q0 -94 53 -94q12 0 45 12zM245 527l-14 9q48 71 92 145q18 31 39 31q12 0 21.5 -7.5t9.5 -20.5 q0 -18 -18 -37q-40 -44 -130 -120z" />
<glyph unicode="&#xfb;" horiz-adv-x="576" d="M565 29q-46 -37 -96 -37q-32 0 -48.5 14t-16.5 56q0 14 2 36l-6 1q-50 -111 -169 -111q-65 0 -93 34t-29 105q0 8 1 57.5t1 96.5q0 111 -12 128q-12 15 -31 15q-6 0 -34 -4l-4 14q58 30 107 30q21 0 31 -10q11 -12 11 -44q0 -13 -2.5 -80.5t-2.5 -120.5q0 -106 8 -131 q16 -52 75 -52q33 0 65.5 19t49.5 52q25 45 25 119v73q0 96 -15 120q-9 15 -31 15q-13 0 -41 -4l-4 14q58 30 115 30q22 0 31 -11q11 -12 11 -43q0 -16 -1 -68t-1 -58v-161q0 -94 53 -94q12 0 45 12zM168 523l-15 10q26 40 103 169q7 13 24 13q16 0 23 -12q12 -20 34 -58 t38 -66t26 -46l-15 -10q-38 40 -108 120q-64 -72 -110 -120z" />
<glyph unicode="&#xfc;" horiz-adv-x="576" d="M565 29q-46 -37 -96 -37q-32 0 -48.5 14t-16.5 56q0 14 2 36l-6 1q-50 -111 -169 -111q-65 0 -93 34t-29 105q0 8 1 57.5t1 96.5q0 111 -12 128q-12 15 -31 15q-6 0 -34 -4l-4 14q58 30 107 30q21 0 31 -10q11 -12 11 -44q0 -13 -2.5 -80.5t-2.5 -120.5q0 -106 8 -131 q16 -52 75 -52q33 0 65.5 19t49.5 52q25 45 25 119v73q0 96 -15 120q-9 15 -31 15q-13 0 -41 -4l-4 14q58 30 115 30q22 0 31 -11q11 -12 11 -43q0 -16 -1 -68t-1 -58v-161q0 -94 53 -94q12 0 45 12zM238 607q0 -18 -12 -29.5t-29 -11.5q-16 0 -27 11.5t-11 29.5t11 29.5 t28 11.5t28.5 -11.5t11.5 -29.5zM385 607q0 -18 -11.5 -29.5t-28.5 -11.5q-16 0 -27.5 11.5t-11.5 29.5t11.5 29.5t28.5 11.5q16 0 27.5 -11.5t11.5 -29.5z" />
<glyph unicode="&#xfd;" horiz-adv-x="514" d="M45 -115q11 -47 28 -63q12 -12 34 -12q25 0 48 23q42 42 90 171q-68 155 -163 365q-22 48 -33 56q-13 11 -43 13v17q57 -4 106 -4q69 0 118 4v-17q-48 -7 -60 -10q-22 -6 -22 -26q0 -30 38 -113q39 -87 93 -212q76 194 90 233q23 64 23 91q0 21 -22 27q-7 2 -60 10v17 q49 -4 110 -4q33 0 89 4v-17q-29 -2 -44 -13q-14 -10 -32 -56t-151 -376q-42 -107 -78 -162q-44 -68 -113 -68q-32 0 -52 14t-20 44q0 21 8 64h18zM240 527l-14 9q48 71 92 145q18 31 39 31q12 0 21.5 -7.5t9.5 -20.5q0 -18 -18 -37q-40 -44 -130 -120z" />
<glyph unicode="&#xfe;" horiz-adv-x="541" d="M261 -225q-65 4 -127 4q-50 0 -115 -4v18q57 7 71 21q9 9 9 95v448q0 150 -2 222q-1 62 -12 85q-8 17 -28 17q-18 0 -42 -3l-3 13q64 31 109 31q20 0 31 -8q12 -10 12 -77q0 -154 -11 -297l6 -1q48 127 170 127q78 0 124 -58.5t46 -167.5q0 -118 -58 -182t-148 -64 q-89 0 -129 43l-5 -3q3 -54 3 -122q0 -80 9 -94q10 -17 90 -25v-18zM161 215q0 -99 12 -127q30 -68 118 -68q132 0 132 213q0 113 -30.5 155t-81.5 42q-63 0 -106.5 -59.5t-43.5 -155.5z" />
<glyph unicode="&#xff;" horiz-adv-x="514" d="M45 -115q11 -47 28 -63q12 -12 34 -12q25 0 48 23q42 42 90 171q-68 155 -163 365q-22 48 -33 56q-13 11 -43 13v17q57 -4 106 -4q69 0 118 4v-17q-48 -7 -60 -10q-22 -6 -22 -26q0 -30 38 -113q39 -87 93 -212q76 194 90 233q23 64 23 91q0 21 -22 27q-7 2 -60 10v17 q49 -4 110 -4q33 0 89 4v-17q-29 -2 -44 -13q-14 -10 -32 -56t-151 -376q-42 -107 -78 -162q-44 -68 -113 -68q-32 0 -52 14t-20 44q0 21 8 64h18zM238 607q0 -18 -12 -29.5t-29 -11.5q-16 0 -27 11.5t-11 29.5t11 29.5t28 11.5t28.5 -11.5t11.5 -29.5zM385 607 q0 -18 -11.5 -29.5t-28.5 -11.5q-16 0 -27.5 11.5t-11.5 29.5t11.5 29.5t28.5 11.5q16 0 27.5 -11.5t11.5 -29.5z" />
<glyph unicode="&#x152;" horiz-adv-x="953" d="M920 181q0 -73 -10 -136q-7 -45 -45 -45q-53 0 -168 0.5t-135 0.5q-31 0 -97 -4t-104 -4q-148 0 -230.5 94t-82.5 250q0 163 92.5 255.5t237.5 92.5q30 0 99 -4.5t110 -4.5q24 0 111 1t133 1q26 0 35.5 -7.5t9.5 -27.5q0 -50 -9 -131h-19q-8 90 -33 111 q-18 15 -47.5 19.5t-110.5 4.5q-43 0 -56.5 -3t-18.5 -10q-7 -12 -7 -81v-181q122 0 152 18q13 8 18.5 22.5t13.5 55.5h20q-2 -52 -2 -107q0 -60 2 -114h-20q-11 63 -34 80q-14 11 -45 14t-105 3v-215q0 -62 10 -79q10 -18 91 -18q126 0 164 26q12 8 19 16.5t18 35t22 71.5 h21zM503 118v445q0 56 -22 72q-27 20 -106 20q-113 0 -178 -84.5t-65 -225.5q0 -145 60.5 -233.5t175.5 -88.5q89 0 115 25q20 19 20 70z" />
<glyph unicode="&#x153;" horiz-adv-x="811" d="M787 122q-22 -62 -69 -98.5t-113 -36.5q-126 0 -174 102q-53 -101 -178 -101q-99 0 -155 66.5t-56 170.5q0 105 59.5 173t166.5 68q123 0 170 -103q50 103 171 103q83 0 127 -47t44 -133q0 -19 -10 -27t-37 -8h-265v-20q0 -111 41 -157.5t104 -46.5q51 0 91 26t61 77z M401 226q0 105 -39.5 159.5t-101.5 54.5q-64 0 -104 -52t-40 -155q0 -109 40.5 -163.5t103.5 -54.5q141 0 141 211zM470 278h115q108 0 118 9q8 7 8 34q0 119 -106 119q-52 0 -92 -41t-43 -121z" />
<glyph unicode="&#x178;" horiz-adv-x="677" d="M470 -2q-72 4 -141 4q-59 0 -132 -4v19q77 10 89 24q11 12 11 78v165q-31 53 -159 259q-57 91 -71 100q-25 17 -63 18v19q75 -4 129 -4q74 0 130 4v-19q-38 -4 -54 -8t-22 -9t-6 -15q0 -20 49 -101q77 -127 121 -194q55 83 116 182q52 88 52 112q0 16 -29 23 q-28 7 -57 10v18q48 -3 124 -3q82 0 116 3v-18q-46 -4 -65 -21q-27 -27 -77 -104q-29 -44 -82 -123t-79 -120v-174q0 -65 8 -78q10 -16 92 -24v-19zM334 798q0 -18 -12 -30t-29 -12q-15 0 -26.5 12t-11.5 30t11 29.5t28 11.5t28.5 -11.5t11.5 -29.5zM491 798 q0 -18 -11.5 -30t-28.5 -12q-16 0 -27.5 12t-11.5 30t11.5 29.5t28.5 11.5q16 0 27.5 -11.5t11.5 -29.5z" />
<glyph unicode="&#x2c6;" horiz-adv-x="290" d="M36 523l-15 10q26 40 103 169q7 13 24 13q16 0 23 -12q12 -20 34 -58t38 -66t26 -46l-15 -10q-38 40 -108 120q-64 -72 -110 -120z" />
<glyph unicode="&#x2dc;" horiz-adv-x="290" d="M24 549l-17 4q7 38 28.5 68.5t53.5 30.5q19 0 70 -27q40 -22 61 -22q27 0 45 51l18 -3q-11 -48 -27 -74t-48 -26q-23 0 -67 22q-50 26 -65 26q-31 0 -52 -50z" />
<glyph unicode="&#x2000;" horiz-adv-x="444" />
<glyph unicode="&#x2001;" horiz-adv-x="889" />
<glyph unicode="&#x2002;" horiz-adv-x="444" />
<glyph unicode="&#x2003;" horiz-adv-x="889" />
<glyph unicode="&#x2004;" horiz-adv-x="296" />
<glyph unicode="&#x2005;" horiz-adv-x="222" />
<glyph unicode="&#x2006;" horiz-adv-x="148" />
<glyph unicode="&#x2007;" horiz-adv-x="148" />
<glyph unicode="&#x2008;" horiz-adv-x="111" />
<glyph unicode="&#x2009;" horiz-adv-x="177" />
<glyph unicode="&#x200a;" horiz-adv-x="49" />
<glyph unicode="&#x2010;" horiz-adv-x="247" d="M226 228h-204v59h204v-59z" />
<glyph unicode="&#x2011;" horiz-adv-x="247" d="M226 228h-204v59h204v-59z" />
<glyph unicode="&#x2012;" horiz-adv-x="247" d="M226 228h-204v59h204v-59z" />
<glyph unicode="&#x2013;" horiz-adv-x="390" d="M369 231h-347v53h347v-53z" />
<glyph unicode="&#x2014;" horiz-adv-x="596" d="M574 231h-552v53h552v-53z" />
<glyph unicode="&#x2018;" horiz-adv-x="189" d="M169 694q-91 -41 -91 -101q0 -23 29 -32q31 -10 31 -47q0 -19 -13.5 -32.5t-35.5 -13.5q-31 0 -46.5 22t-15.5 55q0 52 30 98.5t103 71.5z" />
<glyph unicode="&#x2019;" horiz-adv-x="190" d="M20 485q90 40 90 101q0 23 -27 32q-32 9 -32 46q0 20 13.5 33.5t35.5 13.5q31 0 47 -22t16 -55q0 -52 -30.5 -98.5t-104.5 -71.5z" />
<glyph unicode="&#x201a;" horiz-adv-x="190" d="M20 -134q90 40 90 101q0 24 -27 33q-32 10 -32 46q0 19 13.5 32.5t35.5 13.5q31 0 47 -22t16 -55q0 -52 -30.5 -98.5t-104.5 -71.5z" />
<glyph unicode="&#x201c;" horiz-adv-x="342" d="M322 694q-90 -41 -90 -101q0 -23 27 -32q33 -11 33 -47q0 -19 -14 -32.5t-35 -13.5q-31 0 -47 22t-16 55q0 52 30.5 98.5t103.5 71.5zM169 694q-91 -41 -91 -101q0 -23 29 -32q31 -10 31 -47q0 -19 -13.5 -32.5t-35.5 -13.5q-31 0 -46.5 22t-15.5 55q0 52 30 98.5 t103 71.5z" />
<glyph unicode="&#x201d;" horiz-adv-x="342" d="M20 485q90 40 90 101q0 23 -27 32q-32 9 -32 46q0 20 13.5 33.5t35.5 13.5q31 0 47 -22t16 -55q0 -52 -30.5 -98.5t-104.5 -71.5zM174 485q90 40 90 101q0 24 -28 32q-32 9 -32 46q0 20 14 33.5t35 13.5q31 0 46.5 -22t15.5 -55q0 -52 -30 -98.5t-103 -71.5z" />
<glyph unicode="&#x201e;" horiz-adv-x="342" d="M20 -135q90 40 90 101q0 24 -27 33q-32 10 -32 46q0 19 13.5 32.5t35.5 13.5q31 0 47 -22t16 -55q0 -52 -30.5 -98.5t-104.5 -71.5zM174 -135q90 40 90 101q0 23 -28 33q-32 9 -32 46q0 19 14 32.5t35 13.5q31 0 46.5 -22t15.5 -55q0 -52 -30 -98.5t-103 -71.5z" />
<glyph unicode="&#x2022;" horiz-adv-x="439" d="M359 247q0 -60 -39 -101t-100 -41t-100.5 41t-39.5 101t40 100.5t100 40.5q61 0 100 -40.5t39 -100.5z" />
<glyph unicode="&#x2026;" horiz-adv-x="769" d="M195 44q0 -23 -14.5 -39t-38.5 -16q-23 0 -38.5 16t-15.5 39t15.5 39t37.5 16q24 0 39 -15.5t15 -39.5zM439 44q0 -23 -15 -39t-39 -16q-23 0 -38.5 16t-15.5 39t15.5 39t37.5 16q24 0 39.5 -16t15.5 -39zM682 44q0 -23 -15 -39t-39 -16t-39 16t-15 39t16 39t38 16 q24 0 39 -15.5t15 -39.5z" />
<glyph unicode="&#x202f;" horiz-adv-x="177" />
<glyph unicode="&#x2039;" horiz-adv-x="270" d="M234 76l-15 -14q-33 31 -96.5 88.5t-80.5 73.5q-10 10 -10 23q0 12 9 21q87 76 175 156l14 -12q-21 -28 -69.5 -89t-58.5 -75q17 -24 132 -172z" />
<glyph unicode="&#x203a;" horiz-adv-x="270" d="M44 410l15 14q63 -58 177 -162q11 -11 11 -23q0 -11 -10 -21q-149 -133 -175 -156l-14 12q18 24 64 81.5t64 82.5q-17 24 -132 172z" />
<glyph unicode="&#x205f;" horiz-adv-x="222" />
<glyph unicode="&#x20ac;" horiz-adv-x="668" d="M498 254h-265q22 -230 182 -230q43 0 75 10t55 31.5t38 43t32 56.5l23 -8q-50 -171 -234 -171q-120 0 -181 72.5t-72 195.5h-69v33h67v21q0 34 3 66h-70v33h75q20 122 91 188.5t185 66.5q100 0 154 -30q29 -16 29 -58q0 -57 -9 -105h-23q-6 80 -36 119q-35 45 -121 45 q-83 0 -132.5 -57t-61.5 -169h265v-33h-267q-1 -14 -1 -43q0 -30 1 -44h267v-33z" />
<glyph unicode="&#x2122;" horiz-adv-x="925" d="M295 299q-62 2 -86 2q-18 0 -80 -2v13q44 7 50 13q6 7 6 42v290q-83 0 -102 -14q-13 -11 -21 -73h-14q-5 50 -5 85q0 21 26 21t77.5 -0.5t65.5 -0.5q13 0 65 0.5t79 0.5q15 0 20 -5t5 -16q0 -10 -5 -85h-14q-4 60 -20 73q-11 9 -29.5 11.5t-73.5 2.5v-290q0 -35 5 -42 q5 -9 51 -13v-13zM548 299q-31 2 -68 2q-39 0 -70 -2v13q42 6 49 14q4 4 7 41q8 164 8 238q0 30 -6 44q-8 12 -50 16v13q7 0 30 -0.5t30 -0.5q6 0 18 0.5t14 0.5q18 0 24 -15q9 -23 117 -278q23 52 66.5 146.5t60.5 132.5q6 14 14 14q1 0 14 -0.5t24 -0.5q7 0 29 0.5t28 0.5 v-13q-40 -3 -49 -14q-6 -7 -6 -42q0 -40 2 -135.5t2 -106.5q0 -33 8 -41q6 -7 50 -14v-13q-32 2 -92 2q-45 0 -75 -2v13q48 5 53 16q3 8 3 39q0 28 -1 113t-1 132q-10 -25 -63.5 -139.5t-77.5 -168.5h-14q-97 216 -130 308q0 -49 -1.5 -138.5t-1.5 -106.5q0 -32 4 -40 q5 -9 51 -15v-13z" />
</font>
</defs>
</svg>
